<svg xmlns="http://www.w3.org/2000/svg" width="31" height="10" viewBox="0 0 31 10">
  <path fill="#2ECC71" fill-rule="evenodd" d="M104.719915,17.8407692 L102.249812,20.3738462 L102.249812,-6.23076923 C102.249812,-6.65538462 101.914311,-7 101.5,-7 C101.085689,-7 100.750188,-6.65538462 100.750188,-6.23076923 L100.750188,20.3738462 L98.2800851,17.8407692 C97.9873655,17.54 97.5122592,17.54 97.2195397,17.8407692 C96.9268201,18.1415385 96.9268201,18.6276923 97.2195397,18.9284615 L100.969352,22.7746154 C101.105204,22.9138462 101.292845,23 101.5,23 C101.707155,23 101.894796,22.9138462 102.030648,22.7746154 L105.78046,18.9284615 C106.07318,18.6276923 106.07318,18.1415385 105.78046,17.8407692 C105.48699,17.54 105.012634,17.54 104.719915,17.8407692 Z" transform="rotate(-90 57 49.5)"/>
</svg>
