<?xml version="1.0" encoding="UTF-8" standalone="no"?>
<svg xmlns="http://www.w3.org/2000/svg" height="406px" width="429px" version="1.1" xmlns:xlink="http://www.w3.org/1999/xlink" viewBox="0 0 429 406"><!-- Generator: Sketch 39.1 (31720) - http://www.bohemiancoding.com/sketch -->
 <title>Group</title>
 <desc>Created with Sketch.</desc>
 <defs>
  <filter id="filter-1" height="200%" width="200%" y="-50%" x="-50%" filterUnits="objectBoundingBox">
   <feOffset in="SourceAlpha" result="shadowOffsetOuter1" dx="0" dy="20"/>
   <feGaussianBlur stdDeviation="20" result="shadowBlurOuter1" in="shadowOffsetOuter1"/>
   <feColorMatrix type="matrix" values="0 0 0 0 0   0 0 0 0 0   0 0 0 0 0  0 0 0 0.2 0" result="shadowMatrixOuter1" in="shadowBlurOuter1"/>
   <feMerge>
    <feMergeNode in="shadowMatrixOuter1"/>
    <feMergeNode in="SourceGraphic"/>
   </feMerge>
  </filter>
 </defs>
 <g id="Home" fill-rule="evenodd" fill="none">
  <g id="Ideabooth-UI-Hover" fill="#fff" transform="translate(-385 -217)">
   <g id="Group-3" transform="translate(10)">
    <g id="Group" filter="url(#filter-1)" transform="translate(415 237)">
     <g id="Group-15">
      <polygon id="Path" points="0 83.643 85.842 83.643 85.842 0.14802 0 0.14802"/>
      <rect id="Rectangle-18" y="87.334" x="0" height="233.88" width="85.842"/>
      <path id="ib" d="m93.507 321.21h79.923v-15.1c8.88 8.88 29.3 20.87 59.94 20.87 68.38 0 116.33-51.07 116.33-123 0-72.39-42.62-123.01-110.56-123.01-30.19-0.001-51.06 13.321-59.5 20.43v-101.25l-86.133-0.00198v321.06zm82.883-116.35c0-31.08 17.31-49.29 43.07-49.29 27.53 0 43.51 20.43 43.51 49.29 0 29.76-16.43 48.85-43.51 48.85-28.42 0-43.07-22.2-43.07-48.85z"/>
     </g>
    </g>
   </g>
  </g>
 </g>
</svg>
