<?xml version="1.0" encoding="UTF-8" standalone="no"?>
<svg width="6px" height="20px" viewBox="0 0 6 20" version="1.1" xmlns="http://www.w3.org/2000/svg" xmlns:xlink="http://www.w3.org/1999/xlink">
  <!-- Generator: Sketch 43.1 (39012) - http://www.bohemiancoding.com/sketch -->
  <title>Down Arrow</title>
  <desc>Created with Sketch.</desc>
  <defs></defs>
  <g id="Page-1" stroke="none" stroke-width="1" fill="none" fill-rule="evenodd">
      <g id="Desktop-HD" transform="translate(-972.000000, -2552.000000)" fill="#1FCE6D">
          <g id="Buttons" transform="translate(270.000000, 2455.000000)">
              <g id="Down" transform="translate(560.000000, 82.000000)">
                  <path d="M147.14661,31.5605128 L145.499875,33.2492308 L145.499875,15.5128205 C145.499875,15.2297436 145.276207,15 145,15 C144.723793,15 144.500125,15.2297436 144.500125,15.5128205 L144.500125,33.2492308 L142.85339,31.5605128 C142.658244,31.36 142.341506,31.36 142.14636,31.5605128 C141.951213,31.7610256 141.951213,32.0851282 142.14636,32.285641 L144.646235,34.8497436 C144.736803,34.9425641 144.861896,35 145,35 C145.138104,35 145.263197,34.9425641 145.353765,34.8497436 L147.85364,32.285641 C148.048787,32.0851282 148.048787,31.7610256 147.85364,31.5605128 C147.657993,31.36 147.341756,31.36 147.14661,31.5605128 Z" id="Imported-Layers-Copy-4"></path>
              </g>
          </g>
      </g>
  </g>
</svg>
