<svg xmlns="http://www.w3.org/2000/svg" width="125" height="24" viewBox="0 0 125 24">
  <g fill="none" fill-rule="evenodd" transform="translate(-2 -50.438)">
    <rect width="128" height="128"/>
    <g fill="#4A4A4A" transform="translate(2 51)">
      <path d="M11.8419059,0.286200207 C18.3583292,0.286200207 23.4867442,5.50491827 23.4867442,11.8630372 C23.4867442,18.2566418 18.2722091,23.4406455 11.8419059,23.4406455 C5.41160282,23.4406455 0.199395258,18.2566418 0.199395258,11.8630372 C0.199395258,5.46634681 5.41160282,0.286200207 11.8419059,0.286200207 L11.8419059,0.286200207 L11.8419059,0.286200207 L11.8419059,0.286200207 L11.8419059,0.286200207 Z M11.8155268,14.2891818 L8.55847896,3.54471685 L4.34169597,17.3016125 L5.13384601,17.3016125 C5.13384601,17.3016125 5.66608393,14.9070965 6.53038867,13.4784098 C7.00133389,12.7031235 7.72753608,12.0682373 8.69735737,12.0852087 C9.37933571,12.0990945 9.97209048,12.4701519 10.7122581,13.4984669 C11.1568242,14.1148388 11.8411301,15.6839256 11.8411301,15.6839256 C11.8411301,15.6839256 12.5246601,14.1163816 12.9723296,13.4984669 C13.708618,12.4701519 14.3005969,12.0990945 14.9864545,12.0852087 C15.9547241,12.0682373 16.682478,12.7031235 17.1518715,13.4799526 C18.0161762,14.9078679 18.5484142,17.3016125 18.5484142,17.3016125 L19.3421159,17.3016125 L15.1214536,3.54471685 L11.8659575,14.2891818 L11.8426818,14.3076961 L11.8155268,14.2891818 L11.8155268,14.2891818 L11.8155268,14.2891818 L11.8155268,14.2891818 Z"/>
      <polygon points="31.265 15.75 33.544 8.038 37.471 8.038 38.462 11.334 41.311 8.023 45.478 8.023 43.311 15.743 40.159 15.754 41.311 11.772 37.654 15.754 36.106 15.754 34.978 11.494 33.71 15.754"/>
      <polygon points="58.998 8.022 68.674 8.038 68.091 10.528 64.77 10.528 63.405 15.75 60.344 15.754 61.617 10.551 58.347 10.551"/>
      <path d="M84.94238,8.0375201 L84.94238,9.82800711 L84.9470351,9.82800711 L84.5699686,11.3214939 L87.8883092,11.3214939 C87.8883092,11.3214939 88.6928729,11.1834081 88.7370968,10.449779 C88.7766655,9.80563567 88.171497,9.85037856 88.171497,9.85037856 L84.94238,9.83803569 L84.94238,8.03829153 L89.9396752,8.0375201 C89.9396752,8.0375201 92.0794889,8.19797736 91.8684558,10.0378358 C91.6535434,11.87538 89.6875216,12.4624376 89.6875216,12.4624376 C89.6875216,12.4624376 89.5711431,12.5796948 89.6634701,12.6491234 C89.755797,12.7154663 90.4874302,12.8535522 90.5820848,13.5424384 C90.6744118,14.232096 90.3407932,14.7319821 90.3407932,14.9410394 C90.3407932,15.147011 90.3617414,15.560497 90.6239811,15.7425542 L87.4677946,15.7425542 C87.4677946,15.7425542 86.9021949,15.6569256 86.9541773,15.0775823 C86.9999529,14.5067248 87.0255561,14.0029816 87.0255561,14.0029816 C87.0255561,14.0029816 86.9797806,13.405124 86.1333205,13.4745526 L83.8251459,13.4514097 L83.1656674,15.7494971 L80.2724965,15.7494971 L82.4743788,8.03674867 L84.94238,8.03674867 L84.94238,8.0375201 L84.94238,8.0375201 L84.94238,8.0375201 Z"/>
      <polygon points="106.868 8.038 109.832 8.038 108.397 13.631 113.274 13.631 112.707 15.757 104.845 15.757"/>
      <polygon points="122.744 8.031 124.524 15.754 121.439 15.754 121.114 14.416 121.104 14.388 117.368 14.388 117.356 14.403 116.453 15.75 113.843 15.754 119.113 8.031 120.137 10.307 118.608 12.555 118.652 12.574 120.633 12.574 120.668 12.57 120.137 10.307 119.113 8.031"/>
      <path d="M52.3843153 9.74700705C53.3238782 9.74700705 54.2494757 10.2083217 54.3945609 10.8810079 54.8422304 13.0278951 52.5394868 13.9466672 52.809485 13.8101243 51.485097 14.4650676 49.4725239 14.2552389 49.2351116 12.9021522 49.0124407 11.5999798 50.0218307 10.318636 50.8706183 10.0131501 51.4532869 9.80563567 51.9350941 9.71537846 52.3843153 9.74700705L52.3905222 9.72694989 52.4013842 7.7250913C51.7931123 7.73743417 51.1080305 7.8122628 50.5649306 7.91717716 48.2451181 8.36074891 45.3178095 10.4574933 45.8345302 13.1119809 46.2682343 15.3552968 49.3297662 16.561812 52.7629336 15.9014686 55.9796368 15.2881825 58.0868646 12.8242378 57.6329882 10.6356934 57.1961807 8.52197759 54.6793005 7.7250913 52.4013842 7.7250913L52.4013842 9.45617827 52.3843153 9.74700705 52.3843153 9.74700705 52.3843153 9.74700705 52.3843153 9.74700705zM74.8826177 9.74700705C75.8221805 9.74700705 76.7508814 10.2083217 76.888984 10.8810079 77.3420845 13.0278951 75.0385649 13.9466672 75.3132183 13.8101243 73.9857269 14.4650676 71.9716021 14.2552389 71.7357415 12.9021522 71.5084154 11.5999798 72.5193571 10.318636 73.372024 10.0131501 73.9531409 9.80563567 74.4380516 9.71537846 74.8826177 9.74700705L74.8903762 9.72694989 74.9027899 7.7250913C74.2968456 7.73743417 73.6086604 7.8122628 73.0647846 7.91717716 70.7449721 8.36074891 67.8137842 10.4574933 68.330505 13.1119809 68.7657608 15.3552968 71.8311719 16.561812 75.2589083 15.9014686 78.4802667 15.2881825 80.5867186 12.8242378 80.1336181 10.6356934 79.6983623 8.52197759 77.1799303 7.7250913 74.9027899 7.7250913L74.9027899 9.45617827 74.8826177 9.74700705 74.8826177 9.74700705 74.8826177 9.74700705 74.8826177 9.74700705zM99.3430624 9.72617847C100.282625 9.77786422 101.202016 10.2075502 101.344774 10.8810079 101.794771 13.0278951 99.4881477 13.9466672 99.7674562 13.8101243 98.4399648 14.4650676 96.4273917 14.2552389 96.1899794 12.9021522 95.9626533 11.5999798 96.973595 10.318636 97.8247102 10.0131501 98.526085 9.76166421 98.7976349 9.69069273 99.3430624 9.72617847L99.3570279 7.72431987C98.7495318 7.73666274 98.0660018 7.81149137 97.5159191 7.91640573 95.2007617 8.35997748 92.2726773 10.4567219 92.7862946 13.1112095 93.2199987 15.3545254 96.2854099 16.5610406 99.7131462 15.9006972 102.931401 15.2874111 105.040957 12.8234664 104.584753 10.634922 104.149497 8.52120617 101.631065 7.72431987 99.3570279 7.72431987L99.3570279 9.45540684 99.3430624 9.72617847 99.3430624 9.72617847 99.3430624 9.72617847 99.3430624 9.72617847z"/>
    </g>
  </g>
</svg>
