<svg xmlns="http://www.w3.org/2000/svg" width="128" height="21" viewBox="0 0 128 21">
  <g fill="none" fill-rule="evenodd" transform="translate(0 -53.25)">
    <rect width="128" height="128"/>
    <g fill="#4A4A4A" transform="translate(0 54)">
      <path d="M125.155073 15.0874074C125.546305 15.0874074 125.897763 15.1666667 126.287548 15.4074074 126.639006 15.6074074 126.951412 15.8866667 127.146667 16.2474074 127.341921 16.6474074 127.459073 17.0466667 127.459073 17.4466667 127.459073 17.8466667 127.341921 18.2459259 127.146667 18.6059259 126.951412 19.0059259 126.678056 19.2859259 126.287548 19.4859259 125.93609 19.6859259 125.546305 19.8059259 125.155073 19.8059259 124.765288 19.8059259 124.375503 19.6859259 123.984271 19.4859259 123.63426 19.2859259 123.360181 19.0066667 123.164927 18.6059259 122.930621 18.2459259 122.85252 17.8466667 122.85252 17.4466667 122.85252 17.0466667 122.929898 16.6474074 123.164927 16.2474074 123.360181 15.8874074 123.633537 15.6074074 124.024045 15.4074074 124.375503 15.1674074 124.765288 15.0874074 125.155073 15.0874074L125.155073 15.0874074 125.155073 15.0874074 125.155073 15.0874074zM125.155073 15.4874074C124.842667 15.4874074 124.492655 15.5666667 124.218576 15.7266667 123.906169 15.8866667 123.671864 16.1266667 123.477333 16.4466667 123.321853 16.7666667 123.204701 17.0866667 123.204701 17.4466667 123.204701 17.7666667 123.321853 18.1259259 123.477333 18.4059259 123.63426 18.7266667 123.868565 18.9659259 124.180972 19.1659259 124.493379 19.3259259 124.805062 19.4051852 125.155797 19.4051852 125.46965 19.4051852 125.781333 19.3259259 126.09374 19.1659259 126.406147 18.9651852 126.640452 18.7259259 126.834983 18.4059259 126.990463 18.1259259 127.069288 17.8059259 127.069288 17.4466667 127.069288 17.0874074 126.990463 16.7666667 126.795209 16.4466667 126.639729 16.1266667 126.405424 15.8866667 126.093017 15.7266667 125.78061 15.5666667 125.468927 15.4874074 125.155073 15.4874074L125.155073 15.4874074 125.155073 15.4874074 125.155073 15.4874074zM124.141198 18.7659259L124.141198 16.2066667 125.000316 16.2066667C125.272949 16.2066667 125.507254 16.2474074 125.624407 16.2866667 125.741559 16.3259259 125.858712 16.4066667 125.936814 16.5266667 126.015638 16.6466667 126.053966 16.7659259 126.053966 16.8859259 126.053966 17.0866667 125.976588 17.2451852 125.858712 17.3651852 125.741559 17.5251852 125.546305 17.6051852 125.351774 17.6051852 125.429153 17.6451852 125.507254 17.6844444 125.547028 17.7651852 125.664181 17.8451852 125.781333 18.0051852 125.936814 18.2444444L126.210893 18.7644444 125.742282 18.7644444 125.507977 18.3644444C125.352497 18.0444444 125.195571 17.8451852 125.078418 17.7644444 125.04009 17.6844444 124.922938 17.6844444 124.766011 17.6844444L124.531706 17.6844444 124.531706 18.7644444 124.141198 18.7644444 124.141198 18.7659259 124.141198 18.7659259 124.141198 18.7659259zM124.530983 17.3266667L125.039367 17.3266667C125.272226 17.3266667 125.429153 17.2866667 125.506531 17.2066667 125.585356 17.1274074 125.623684 17.0466667 125.623684 16.9266667 125.623684 16.8474074 125.585356 16.8074074 125.546305 16.7266667 125.506531 16.6866667 125.468927 16.6474074 125.389379 16.6066667 125.312 16.5666667 125.194124 16.5666667 124.999593 16.5666667L124.530983 16.5666667 124.530983 17.3266667 124.530983 17.3266667 124.530983 17.3266667 124.530983 17.3266667zM110.206554 19.6059259L110.206554 7.93037037 104.467525 7.93037037 104.467525.0140740741 125.898486.0140740741 125.898486 7.93111111 120.159458 7.93111111 120.159458 19.6066667 110.206554 19.6066667 110.206554 19.6059259 110.206554 19.6059259 110.206554 19.6059259zM52.6311412 19.3659259L58.7592316.0140740741 73.9037288.0140740741 80.1099209 19.6059259 70.1562938 19.6059259 69.4150508 17.1266667 63.3650621 17.1266667 62.5847684 19.6059259 52.8654463 19.6059259 52.5523164 19.6059259 41.5059887 19.6059259 36.939209 13.4881481 36.939209 19.6059259 27.1417853 19.6059259 27.1417853.0140740741 44.0435706.0140740741C46.9709379.0140740741 48.0253107.0940740741 49.4304181.774074074 50.9917288 1.45333333 51.9672768 2.85333333 52.0063277 5.49185185 52.0453785 7.61111111 51.3431864 9.33037037 49.4694689 10.4496296 48.4931977 11.0096296 47.3614463 11.3296296 46.1515932 11.4888889L52.6311412 19.3659259 52.6311412 19.3659259 52.6311412 19.3659259 52.6311412 19.3659259zM64.419435 11.6088889L68.2442486 11.6088889 66.5267345 5.85185185 66.3712542 4.93185185 66.2924294 4.93185185 66.1369492 5.85185185 64.419435 11.6088889 64.419435 11.6088889 64.419435 11.6088889 64.419435 11.6088889zM.364474576 19.6059259L.364474576.0140740741 9.84949153.0140740741 9.84949153 7.65111111 14.260791.0540740741 25.9709831.0140740741 18.0472768 10.0896296 25.6585763 19.6059259 14.6896271 19.6059259 10.3962034 13.9681481 9.92759322 13.0881481 9.92759322 19.6059259.364474576 19.6059259.364474576 19.6059259.364474576 19.6059259.364474576 19.6059259zM81.4376497 19.6059259L81.4376497.0140740741 102.711684.0140740741 102.711684 7.09111111 91.3912768 7.09111111 91.3912768 8.73037037 102.711684 8.73037037 102.711684 14.6874074 91.3912768 14.6874074 91.3912768 19.6059259 81.4376497 19.6059259 81.4376497 19.6059259 81.4376497 19.6059259 81.4376497 19.6059259zM37.0173107 5.49185185L37.0173107 9.37037037 39.9056271 9.37037037C40.5694915 9.37037037 41.4669379 9.05037037 41.8183955 8.73037037 42.1698531 8.41037037 42.4041582 7.93037037 42.4041582 7.33111111 42.4041582 6.69185185 42.1698531 6.33111111 41.8183955 5.97185185 41.4669379 5.65185185 40.9592768 5.49259259 40.3351864 5.49259259L37.0173107 5.49259259 37.0173107 5.49185185 37.0173107 5.49185185 37.0173107 5.49185185z"/>
    </g>
  </g>
</svg>
