<svg xmlns="http://www.w3.org/2000/svg" width="126" height="25" viewBox="0 0 126 25">
  <g fill="none" fill-rule="evenodd" transform="translate(0 -49.875)">
    <rect width="128" height="128"/>
    <g fill="#4A4A4A" transform="translate(.11 50.058)">
      <path d="M12.185589 2.65199832L12.185589.194054011.147292548.194054011.147292548 2.65199832 4.27315766 2.65199832 4.27315766 13.3405547 8.00185893 13.3405547 8.00185893 2.65199832 12.185589 2.65199832 12.185589 2.65199832 12.185589 2.65199832 12.185589 2.65199832zM58.588241 13.3407742C58.489488 12.4673117 58.4282756 11.7936106 58.4282756 11.337891L58.4282756 6.91284487C58.4282756 5.07481972 56.9620452 3.92783758 55.0178315 3.92783758 53.6082705 3.94539902 52.380195 4.52843913 51.7049447 5.54766173 51.2891302 4.52821962 50.0596199 3.98183903 48.9085382 3.98183903 47.520019 3.98183903 46.3498085 4.40067959 45.6936871 5.54766173L45.6157369 4.18182004 42.2052926 4.18182004 42.2052926 13.3407742 45.7350533 13.3407742 45.7350533 7.82494263C45.7350533 7.53386161 45.5958907 5.96716085 47.223282 5.96716085 48.3133903 5.96716085 48.572587 6.85972148 48.572587 7.73296454L48.572587 13.3407742 52.0822622 13.3407742 52.0822622 7.82494263C52.0822622 7.53386161 51.9430994 5.96716085 53.5695344 5.96716085 54.6605992 5.96716085 54.917883 6.85972148 54.917883 7.73296454L54.917883 13.3407742 58.588241 13.3407742 58.588241 13.3407742 58.588241 13.3407742 58.588241 13.3407742 58.588241 13.3407742zM41.3942273 6.87706341L41.3942273 4.09115907C39.8667843 4.07184145 38.6951392 4.52843913 38.2403495 5.9302818L38.1612036 4.18182004 34.6304864 4.18182004C34.7093933 4.92840113 34.7093933 5.9302818 34.7093933 6.53088335L34.7093933 13.3407742 38.2401103 13.3407742 38.2401103 9.33522724C38.2401103 7.82494263 38.71642 6.89440536 40.6608729 6.85884342 40.8980712 6.85884342 41.135748 6.85884342 41.3942273 6.87706341L41.3942273 6.87706341 41.3942273 6.87706341 41.3942273 6.87706341zM64.6709928 3.92761806C61.4181231 3.92761806 59.2957713 5.58410173 59.2957713 8.73352809 59.2957713 11.9751521 61.4382083 13.5960738 64.6709928 13.5960738 67.9040164 13.5960738 70.0459752 11.9751521 70.0459752 8.73352809 70.0462144 5.58410173 67.9238626 3.92761806 64.6709928 3.92761806L64.6709928 3.92761806 64.6709928 3.92761806 64.6709928 3.92761806zM64.6709928 5.85784082C66.1587433 5.85784082 66.4365905 7.25902493 66.4365905 8.69796617 66.4365905 10.3737674 66.1190507 11.6838515 64.6709928 11.6838515 63.2229349 11.6838515 62.9053953 10.3737674 62.9053953 8.69796617 62.9053953 7.24058542 63.1832424 5.83940131 64.6709928 5.83940131L64.6709928 5.85784082 64.6709928 5.85784082 64.6709928 5.85784082 64.6709928 5.85784082zM23.0594134 13.3407742C22.9604214 12.4673117 22.9202508 11.8473925 22.9202508 11.337891L22.9202508 6.91284487C22.9202508 5.07481972 21.4332176 3.92783758 19.4897212 3.92783758 18.8945732 3.92783758 18.3180759 4.01849857 17.8231156 4.21891859 17.3673695 4.41933863 16.9312305 4.70910255 16.5539129 5.1472607L16.5539129.193175939 13.0231958.193175939 13.0231958 13.3396766 16.5539129 13.3396766 16.5539129 7.82362551C16.5539129 7.53276401 16.4147502 5.96606325 18.0411851 5.96606325 19.1516179 5.96606325 19.39049 6.85884342 19.39049 7.73164742L19.39049 13.3394571 23.0591744 13.3394571 23.0591744 13.3407742 23.0594134 13.3407742 23.0594134 13.3407742 23.0594134 13.3407742zM33.8497882 9.38944821C33.8698736 6.0938228 32.7984158 3.92761806 28.8117135 3.92761806 25.6580748 3.92761806 23.7757909 5.71186128 23.7757909 8.49776564 23.7757909 11.9220287 25.1028585 13.5960738 28.9905688 13.5960738 30.1997546 13.5960738 31.2712122 13.3407742 32.0841905 12.8312727 32.957664 12.3031121 33.6716503 11.465431 33.7704033 10.3177903L30.4379093 10.3177903C30.3389171 11.15613 29.8049818 11.7198525 28.7526531 11.7198525 27.4033481 11.7198525 27.1262181 10.5364303 27.1463035 9.38966772L33.8497882 9.38966772 33.8497882 9.38944821 33.8497882 9.38944821 33.8497882 9.38944821zM30.4780799 7.62452258L27.2065596 7.62452258C27.2842707 6.65952098 27.5224254 5.67607982 28.8329943 5.62185885 29.4271859 5.60254126 29.8253062 5.85784082 30.0823508 6.25911993 30.3604373 6.64130096 30.4783191 7.15080251 30.4783191 7.64186451L30.4783191 7.62452258 30.4780799 7.62452258 30.4780799 7.62452258 30.4780799 7.62452258zM125.287137 6.71352243L125.287137 3.92674C123.759455 3.90830047 122.589483 4.36489815 122.133259 5.76717984L122.054591 4.18182004 118.523157 4.18182004C118.602303 4.92840113 118.602303 5.92940373 118.602303 6.53198095L118.602303 13.3418718 122.133259 13.3418718 122.133259 9.33412964C122.133259 7.82362551 122.609808 6.73108387 124.552826 6.69420484 124.790981 6.69420484 125.030092 6.69420484 125.287137 6.71352243L125.287137 6.71352243 125.287137 6.71352243 125.287137 6.71352243zM106.922673 13.3418718C106.823681 12.4673117 106.783032 11.847173 106.783032 11.3376715L106.783032 6.91262535C106.783032 5.07328309 105.295999 3.92652046 103.352981 3.92652046 102.757833 3.92652046 102.220789 4.01740097 101.726307 4.21738198 101.270322 4.41758249 100.79449 4.7097611 100.417412 5.14682167L100.417412.194054011 96.8859772.194054011 96.8859772 13.3405547 100.417412 13.3405547 100.417412 7.82362551C100.417412 7.53166644 100.278249 5.96606325 101.904445 5.96606325 103.015595 5.96606325 103.254228 6.85884342 103.254228 7.73296454L103.254228 13.3407742 106.922912 13.3407742 106.922912 13.3418718 106.922673 13.3418718 106.922673 13.3418718 106.922673 13.3418718zM96.0208727 10.6095299C96.0208727 9.18902819 95.2069378 8.49754613 94.0764197 8.11580412 91.9547853 7.4221269 90.3675646 7.38766254 90.3675646 6.6573258 90.3675646 6.11314039 90.7049507 5.80252227 91.2785787 5.80252227 91.7345639 5.80252227 92.033931 5.9109642 92.2309587 6.09360328 92.409575 6.27646186 92.4875253 6.56644529 92.4875253 6.9677244L95.8410609 6.9677244C95.7619152 4.56378156 93.699102 3.9256424 91.4380659 3.9256424 89.5134592 3.9256424 87.0142681 4.54424443 87.0142681 6.74930389 87.0142681 9.95404881 92.6656632 9.11570912 92.6656632 10.8283894 92.6656632 11.4287715 92.1314886 11.7005349 91.4380659 11.7005349 91.040663 11.7005349 90.7224058 11.5187739 90.5258563 11.2632548 90.3266766 11.0274924 90.2477699 10.6810928 90.3077868 10.3715722L86.9367959 10.3715722C86.8755835 13.1023776 89.0782765 13.5949762 91.5191245 13.5949762 93.7990506 13.5967324 96.0208727 12.8319313 96.0208727 10.6095299L96.0208727 10.6095299 96.0208727 10.6095299 96.0208727 10.6095299zM117.731698 9.39032629C117.75274 6.0938228 116.680326 3.92674 112.693863 3.92674 109.539985 3.92674 107.656984 5.71054416 107.656984 8.49776564 107.656984 11.9213701 108.98453 13.5967324 112.872479 13.5967324 114.082143 13.5967324 115.153122 13.3418718 115.965862 12.8319313 116.838618 12.3031121 117.552365 11.4656505 117.652074 10.3186684L114.320776 10.3186684C114.220588 11.1552519 113.685936 11.7198525 112.634802 11.7198525 111.285498 11.7198525 111.008128 10.5375279 111.027257 9.39032629L117.731698 9.39032629 117.731698 9.39032629 117.731698 9.39032629 117.731698 9.39032629zM114.35999 7.62452258L111.088231 7.62452258C111.165942 6.65864289 111.405292 5.67607982 112.714905 5.62098079 113.309574 5.60254126 113.705782 5.85784082 113.964022 6.25824187 114.242108 6.64130096 114.360229 7.15080251 114.360229 7.64186451L114.360229 7.62452258 114.35999 7.62452258 114.35999 7.62452258 114.35999 7.62452258zM86.0355856 4.18182004L82.5046294 4.18182004 82.5046294 13.3418718 86.0355856 13.3418718 86.0355856 4.18182004 86.0355856 4.18182004 86.0355856 4.18182004 86.0355856 4.18182004zM81.4071085 2.61643637L82.2404114.194932084 72.7541497.194932084 72.7541497 13.3418718 76.482851 13.3418718 76.482851 8.17002511 79.4951748 8.17002511 80.3253692 5.74830128 76.48309 5.74830128 76.48309 2.61753397 81.4075867 2.61753397 81.4075867 2.61643637 81.4071085 2.61643637 81.4071085 2.61643637 81.4071085 2.61643637zM86.0339118 2.60919229L86.8727142.19185883 83.3836023.19185883 82.5462348 2.60919229 86.0339118 2.60919229 86.0339118 2.60919229 86.0339118 2.60919229 86.0339118 2.60919229z"/>
      <rect width="1.295" height="7.454" x="32.542" y="17.192"/>
      <path d="M119.711779,24.773497 C117.007191,24.773497 114.98431,23.3971185 114.98431,20.9764922 C114.98431,18.5264506 117.254432,17.0376788 119.796424,17.0376788 C120.705047,17.0376788 121.705011,17.3116374 122.343916,17.6911842 L121.680382,18.416472 C121.106754,18.1264886 120.488173,17.9337517 119.811966,17.9280442 C118.840936,17.9212392 117.885447,18.1890513 117.23889,18.8392639 C116.711172,19.3702782 116.41826,20.0567114 116.41826,21.0197374 C116.41826,22.0655217 116.769276,22.6395615 117.381161,23.1945033 C118.000459,23.7573476 118.949731,23.9116689 119.880591,23.9116689 C120.62351,23.9116689 121.358778,23.6585645 121.934318,23.3793374 L122.565333,24.0771855 C121.907538,24.4810988 120.788258,24.773497 119.711779,24.773497"/>
      <rect width="1.296" height="7.454" x="106.097" y="17.192"/>
      <polygon points="76.822 18.084 73.797 18.084 73.797 24.646 72.533 24.646 72.533 18.084 69.532 18.084 69.532 17.192 76.963 17.192"/>
      <path d="M9.37244479 24.3814377C8.75410302 24.6632989 7.97962159 24.8011563 7.08414984 24.8011563 5.93522017 24.8011563 4.76955267 24.5673696 3.79923911 24.1292113L4.33652214 23.2849448C5.2788597 23.7162978 6.17433143 23.9103519 7.16879523 23.9103519 7.81750414 23.9103519 8.24670888 23.8069589 8.64506828 23.6085144 9.10894416 23.3753861 9.35929367 23.057085 9.35929367 22.6450494 9.35929367 22.0233741 8.83898753 21.6339491 7.58389242 21.3656978L6.26232438 21.0836172C4.94864701 20.8021949 4.12203933 20.0481501 4.12203933 19.1659069 4.12203933 17.8942384 5.4825825 16.9950923 7.42273143 16.9950923 8.55396687 16.9950923 9.76339172 17.2547822 10.5373949 17.7043553L9.95324609 18.4827665C9.16035309 18.0799508 8.33374539 17.8856772 7.49039991 17.8856772 6.33716622 17.8856772 5.537339 18.2974932 5.537339 18.9962194 5.537339 19.5344778 6.02440867 19.8551937 7.15994813 20.1054444L8.38013298 20.373915C9.07331659 20.5269192 9.77630375 20.7953898 10.1768151 21.1297159 10.5581976 21.4491148 10.8075907 21.9621286 10.8075907 22.4613127 10.808308 23.221943 10.2779592 23.9650119 9.37244479 24.3814377M61.3762785 24.6457375L58.1513848 20.670045C57.5461941 19.925659 56.5249499 18.4724491 56.5249499 18.4724491 56.5249499 18.4724491 56.6394842 19.7302879 56.6485703 20.8333665L56.6784592 24.6457375 55.3894103 24.6457375 55.3894103 17.1917805 56.9254613 17.1917805 60.184787 21.2504508C60.8189102 22.0413745 61.7021873 23.294823 61.7021873 23.294823 61.7021873 23.294823 61.5097026 21.919981 61.4996599 20.9328082L61.4709666 17.192 62.7478208 17.192 62.7478208 24.6459571 61.3762785 24.6459571 61.3762785 24.6457375 61.3762785 24.6457375 61.3762785 24.6457375 61.3762785 24.6457375z"/>
      <rect width="1.295" height="7.454" x="83.618" y="17.192"/>
      <polygon points="99.031 18.069 94.579 18.069 94.579 20.274 98.345 20.274 98.345 21.153 94.579 21.153 94.579 24.646 93.284 24.646 93.284 17.192 99.203 17.192"/>
      <polygon points="42.205 24.646 42.205 17.192 48.191 17.192 48.018 18.084 43.501 18.084 43.501 20.305 47.352 20.305 47.352 21.195 43.517 21.195 43.517 23.711 48.352 23.711 48.352 24.646"/>
      <path d="M22.5333686,24.773497 C19.8278245,24.773497 17.8056605,23.3971185 17.8056605,20.9764922 C17.8056605,18.5264506 20.0760221,17.0376788 22.6168186,17.0376788 C23.5256805,17.0376788 24.5266003,17.3116374 25.1643101,17.6911842 L24.5014937,18.416472 C23.928583,18.1264886 23.3090456,17.9337517 22.6337955,17.9280442 C21.6625254,17.9212392 20.7060803,18.1890513 20.0595234,18.8392639 C19.532283,19.3702782 19.2386544,20.0567114 19.2386544,21.0197374 C19.2386544,22.0655217 19.5901479,22.6395615 20.2017946,23.1945033 C20.8225275,23.7573476 21.7701255,23.9116689 22.7012247,23.9116689 C23.4443826,23.9116689 24.1796498,23.6585645 24.7559081,23.3793374 L25.3857271,24.0771855 C24.7279319,24.4810988 23.6100869,24.773497 22.5333686,24.773497"/>
    </g>
  </g>
</svg>
