<svg xmlns="http://www.w3.org/2000/svg" width="58" height="28" viewBox="0 0 58 28">
  <g fill="none" fill-rule="evenodd" transform="translate(-35 -50.063)">
    <rect width="128" height="128"/>
    <g transform="translate(35 50)">
      <path fill="#4A4A4A" d="M20.5368143 10.2683089L22.9688055 9.81395894 22.9688055 19.3098729C22.9688055 20.3548778 23.3741374 20.9909677 24.1397642 21.1727077 23.7794692 21.7633627 23.1039161 22.0359726 22.2031787 22.0359726 21.0772568 22.0359726 20.5368143 21.3998827 20.5368143 20.1731378L20.5368143 10.2683089 20.5368143 10.2683089 20.5368143 10.2683089 20.5368143 10.2683089zM29.9945578 13.2215836C29.0938203 13.2215836 28.3281935 13.4487586 27.7427141 13.9485435L27.7427141 13.4033236 25.3107229 13.4033236 25.3107229 27.987957 27.7427141 27.987957 27.7427141 21.6270577C28.3732303 21.8542326 29.0938203 21.9905376 29.8594472 21.9905376 31.4357377 21.9905376 32.6967702 21.6270577 33.6425445 20.8546628 34.5883189 20.0822678 35.0386876 19.037263 35.0386876 17.6287781 34.9936507 14.7209384 33.3272864 13.2215836 29.9945578 13.2215836L29.9945578 13.2215836 29.9945578 13.2215836zM31.705959 19.7187879C31.2105534 20.1731378 30.3998896 20.3548778 29.2739678 20.3548778 28.6884884 20.3548778 28.148046 20.2185728 27.6976772 19.9005279L27.6976772 15.4478983C28.148046 15.0844184 28.6884884 14.9026784 29.2739678 14.9026784 30.3998896 14.9026784 31.2105534 15.1298534 31.705959 15.4933333 32.2013646 15.9022483 32.426549 16.6292082 32.426549 17.6287781 32.4715858 18.582913 32.2013646 19.2644379 31.705959 19.7187879L31.705959 19.7187879 31.705959 19.7187879zM44.7216154 19.2644379L44.7216154 17.4470381C44.7216154 15.8113783 44.3613204 14.6755034 43.5956936 14.0848485 42.8300667 13.4941935 41.659108 13.2215836 40.0828175 13.2215836 38.9118587 13.2215836 37.9210475 13.4033236 37.0653469 13.7213685L37.6057894 15.2661584C38.2363056 15.0389834 39.0019325 14.9026784 39.90267 14.9026784 41.4789605 14.9026784 42.2445874 15.4024633 42.2445874 16.4020332 41.8392555 16.3111632 41.5239974 16.2657283 41.2087393 16.2657283 39.542375 16.2657283 38.2363056 16.5383382 37.3355682 17.0835582 36.4348307 17.6287781 35.984462 18.401173 35.984462 19.4007429 35.984462 20.2185728 36.2997201 20.9000978 36.9752732 21.3544477 37.6057894 21.8087977 38.5065269 22.0359726 39.6324487 22.0359726 40.2179281 22.0359726 40.8034074 21.9451026 41.3438499 21.7633627 41.8842924 21.5816227 42.2896243 21.3090127 42.5148086 21.0364027 42.6048824 21.3090127 42.7850299 21.5361877 43.0552511 21.7179277 43.3254723 21.9451026 43.6407305 22.0359726 44.0010255 22.0359726 44.3162836 22.0359726 44.5865048 21.9905376 44.856726 21.9451026 45.1269473 21.8996676 45.3070948 21.7179277 45.5322792 21.4453177 44.9918367 21.1272727 44.7216154 20.4003128 44.7216154 19.2644379L44.7216154 19.2644379 44.7216154 19.2644379zM42.2896243 18.673783C42.2896243 19.8550929 41.5690343 20.4457478 40.0828175 20.4457478 39.0019325 20.4457478 38.4164531 20.0822678 38.4164531 19.3098729 38.4164531 18.310303 39.4072643 17.7650831 41.3438499 17.7650831 41.5690343 17.7650831 41.8842924 17.8105181 42.2896243 17.8559531L42.2896243 18.673783 42.2896243 18.673783 42.2896243 18.673783z"/>
      <polygon fill="#4A4A4A" points="53.504 21.854 50.441 18.038 49.27 19.037 49.27 21.854 46.838 21.854 46.838 10.268 49.27 9.814 49.27 16.675 52.738 13.449 55.711 13.449 52.153 16.675 56.431 21.9 53.504 21.9"/>
      <path fill="#4A4A4A" d="M18.6002288 19.2644379L18.6002288 17.4470381C18.6002288 15.8113783 18.2399338 14.6755034 17.4743069 14.0848485 16.7086801 13.4941935 15.5377214 13.2215836 13.9614308 13.2215836 12.7904721 13.2215836 11.7996609 13.4033236 10.9439603 13.7213685L11.4844028 15.2661584C12.114919 15.0389834 12.8805458 14.9026784 13.7812833 14.9026784 15.3575739 14.9026784 16.1232007 15.4024633 16.1232007 16.4020332 15.7178689 16.3111632 15.4026108 16.2657283 15.0873526 16.2657283 13.4209883 16.2657283 12.114919 16.5383382 11.2141815 17.0835582 10.313444 17.6287781 9.86307531 18.401173 9.86307531 19.4007429 9.86307531 20.2185728 10.1783334 20.9000978 10.8538865 21.3544477 11.4844028 21.8087977 12.3851402 22.0359726 13.5110621 22.0359726 14.0965414 22.0359726 14.6820208 21.9451026 15.2224633 21.7633627 15.7629057 21.5816227 16.1682376 21.3090127 16.393422 21.0364027 16.4834957 21.3090127 16.6636432 21.5361877 16.9338645 21.7179277 17.2040857 21.9451026 17.5193438 22.0359726 17.8796388 22.0359726 18.1948969 22.0359726 18.4651182 21.9905376 18.7353394 21.9451026 19.0055606 21.8542326 19.1857081 21.7179277 19.4108925 21.4453177 18.9154869 21.1272727 18.6002288 20.4003128 18.6002288 19.2644379L18.6002288 19.2644379 18.6002288 19.2644379zM16.1682376 18.673783C16.1682376 19.8550929 15.4476476 20.4457478 13.9614308 20.4457478 12.8805458 20.4457478 12.2950665 20.0822678 12.2950665 19.3098729 12.2950665 18.310303 13.2858777 17.7650831 15.2224633 17.7650831 15.4476476 17.7650831 15.7629057 17.8105181 16.1682376 17.8559531L16.1682376 18.673783 16.1682376 18.673783 16.1682376 18.673783zM11.7996609 3.27131965C11.7996609 3.27131965 4.32353986 20.3548778 3.87317112 20.9455327 3.87317112 20.9455327 3.82813425 20.9909677 3.78309738 20.9909677 3.82813425 21.1727077 3.87317112 21.3544477 3.96324487 21.5361877 4.18842924 22.1722776 5.04412984 22.3540176 5.17924046 22.3540176 5.71968294 22.3085826 6.21508855 22.1722776 6.44027292 21.6724927 7.20589977 20.0822678 15.7178689.18173998 15.7178689.18173998L11.7996609 3.27131965 11.7996609 3.27131965 11.7996609 3.27131965z"/>
      <path fill="#4A4A4A" d="M5.13420358,22.3540176 C4.99909296,22.3085826 4.14339237,22.1268426 3.918208,21.5361877 C3.87317112,21.3544477 3.78309738,21.1727077 3.7380605,20.9909677 C3.51287614,20.1731378 3.37776552,19.2644379 3.28769177,18.582913 C2.83732303,14.7663734 2.65717554,8.49634409 2.65717554,8.49634409 L0.270221241,10.4954839 C0.270221241,10.4954839 0.540442483,19.4916129 1.62132745,21.9451026 C1.93658556,22.4903226 5.17924046,22.3540176 5.13420358,22.3540176 L5.13420358,22.3540176 L5.13420358,22.3540176 L5.13420358,22.3540176 Z"/>
      <g fill="#9F9F9F" transform="translate(55.753 11.359)">
        <path d="M0.857938454,0.0454349951 C0.407569719,0.0454349951 0.0472747306,0.408914956 0.0472747306,0.863264907 C0.0472747306,1.31761486 0.407569719,1.68109482 0.857938454,1.68109482 C1.30830719,1.68109482 1.66860218,1.31761486 1.66860218,0.863264907 C1.66860218,0.408914956 1.30830719,0.0454349951 0.857938454,0.0454349951 L0.857938454,0.0454349951 L0.857938454,0.0454349951 Z M0.857938454,1.59022483 C0.497643466,1.59022483 0.182385351,1.27217986 0.182385351,0.908699902 C0.182385351,0.499784946 0.452606592,0.227174976 0.857938454,0.227174976 C1.21823344,0.227174976 1.53349156,0.545219941 1.53349156,0.908699902 C1.53349156,1.27217986 1.21823344,1.59022483 0.857938454,1.59022483 L0.857938454,1.59022483 L0.857938454,1.59022483 Z"/>
        <path d="M0.993049075,0.954134897 C1.1281597,0.954134897 1.26327032,0.863264907 1.26327032,0.681524927 C1.26327032,0.499784946 1.17319657,0.408914956 0.948012201,0.408914956 L0.54268034,0.408914956 L0.54268034,1.36304985 L0.67779096,1.36304985 L0.67779096,0.954134897 L0.857938454,0.954134897 L1.1281597,1.36304985 L1.30830719,1.36304985 L0.993049075,0.954134897 L0.993049075,0.954134897 L0.993049075,0.954134897 Z M0.857938454,0.817829912 L0.722827834,0.817829912 L0.722827834,0.499784946 L0.902975328,0.499784946 C0.993049075,0.499784946 1.1281597,0.545219941 1.1281597,0.636089932 C1.08312282,0.817829912 0.948012201,0.817829912 0.857938454,0.817829912 L0.857938454,0.817829912 L0.857938454,0.817829912 Z"/>
      </g>
    </g>
  </g>
</svg>
