<svg xmlns="http://www.w3.org/2000/svg" width="94" height="29" viewBox="0 0 94 29">
  <g fill="none" fill-rule="evenodd" transform="translate(-18 -49.5)">
    <rect width="128" height="128"/>
    <g fill="#4A4A4A" transform="translate(18 50)">
      <path d="M65.8127458 11.8049057C65.4558644 11.0351698 63.789887 9.61509434 63.016113 9.37841509 62.480791 9.26007547 58.9709266 10.8581887 58.5540339 11.2723774 58.1382034 11.6273962 58.0781921 12.2190943 57.6028814 12.5154717 57.6028814 12.1604528 57.1270395 11.9824151 57.1859887 11.5090566 57.2449379 10.9765283 57.3054802 10.4434717 57.4233785 9.85177358 57.4833898 9.31924528 57.4833898 8.78671698 57.5428701 8.19449057 57.6028814 7.72113208 57.7213107 7.12890566 57.6028814 6.59637736 57.3049492 4.76158491 54.6267458.499773585 52.3670282 1.74286792 50.9979209 1.74286792 51.7716949.203924528 49.9272768.145283019 49.5703955.145283019 49.2135141.20445283 48.916113.20445283 48.380791.20445283 47.9049492.145283019 47.368565.0861132075 47.0716949.20445283 46.7737627.381962264 46.4763616.500301887L46.4763616.381962264C46.1194802.381962264 46.2979209 1.27003774 46.3574011 1.50618868 46.7737627 3.6965283 46.7737627 6.00467925 47.0116836 8.372 47.1306441 9.31924528 47.7259774 10.6806792 47.3680339 11.6273962 47.130113 11.6273962 46.6548023 11.3310189 46.4758305 11.5090566 45.8810282 12.1007547 47.4869944 17.2501132 47.6064859 18.1376604L47.3680339 18.1376604C47.3680339 17.9009811 47.0711638 17.7234717 46.8332429 17.7234717 46.595322 17.7234717 46.7737627 18.4340377 46.8332429 18.6115472 46.9522034 19.2624151 47.0711638 19.9138113 47.1901243 20.5646792 47.2496045 21.2752453 47.2496045 22.0444528 47.3090847 22.8136604 47.6070169 24.4709434 47.8444068 26.1282264 48.1418079 27.7855094L48.3802599 27.7855094C48.3802599 26.7796226 48.7960904 26.0690566 48.7960904 25.1223396 48.7960904 24.7081509 48.6765989 24.4709434 48.6765989 24.1159245 48.7366102 23.5242264 48.7960904 22.9325283 48.4981582 22.4586415L48.4981582 22.3403019 48.7960904 22.3403019C48.7960904 22.5178113 48.9745311 22.6953208 49.1529718 22.8136604 49.0940226 23.0503396 48.9745311 23.346717 48.9155819 23.5833962L49.0350734 23.5833962C49.0940226 23.4058868 49.0940226 23.2278491 49.1535028 23.0503396 49.3919548 23.0503396 49.5703955 23.2870189 49.8077853 23.346717 49.8077853 21.2160755 49.6882938 19.2629434 49.6882938 17.2501132L49.8077853 17.2501132 49.8077853 17.3689811C49.986226 17.3689811 50.0462373 17.6056604 50.1646667 17.724 50.0462373 17.724 49.9272768 17.6653585 49.8077853 17.6056604 49.8077853 17.6056604 50.8189492 18.7890566 50.9384407 18.9079245L50.9384407 19.0262642 51.0579322 19.0262642C51.0579322 18.6120755 50.9979209 18.1381887 50.9384407 17.724 50.9973898 16.8956226 51.1168814 16.066717 51.1768927 15.1791698 51.1168814 14.2324528 51.1168814 13.2852075 51.0574011 12.2793208L51.3553333 12.2793208 51.3553333 12.3976604C51.533774 12.3976604 52.6644294 14.4691321 52.8428701 14.8241509 53.9135141 14.8241509 55.1031186 14.2324528 56.0553333 13.8769057 56.3532655 13.758566 56.6506667 13.6402264 56.9485989 13.5218868 57.1859887 13.462717 57.4239096 13.6402264 57.6028814 13.758566 57.8997514 14.1135849 57.8402712 14.5277736 57.8997514 14.9419623 57.9597627 15.8300377 57.781322 16.6584151 57.7213107 17.4867925 57.6028814 20.1504906 58.4950847 21.570566 60.7563955 22.6953208 62.0054802 23.2870189 63.6119774 22.9911698 64.6836836 22.2219623 65.2190056 21.8669434 65.8732881 21.2160755 66.111209 20.5646792 66.349661 19.9729811 66.111209 18.9670943 66.111209 18.2565283 66.1101469 16.3028679 66.5275706 13.4030189 65.8127458 11.8049057L65.8127458 11.8049057 65.8127458 11.8049057 65.8127458 11.8049057zM53.6155819 12.5149434C53.4371412 12.5149434 53.3781921 12.633283 53.1997514 12.7516226 52.8428701 12.9291321 52.5454689 12.6924528 52.2475367 12.5149434 52.2475367 12.2782642 52.3670282 12.1002264 52.4849266 11.922717 52.9018192 11.9818868 53.2587006 12.1002264 53.6155819 12.2777358L53.6155819 12.5149434 53.6155819 12.5149434 53.6155819 12.5149434 53.6155819 12.5149434zM53.7350734 11.0351698L53.6155819 11.0351698C53.6155819 11.1535094 51.5927232 11.0943396 51.1768927 11.1535094L51.1768927 11.0351698C50.9384407 11.0351698 51.1768927 10.3251321 51.2358418 10.1476226 51.4732316 8.72701887 51.3553333 6.89222642 51.294791 5.41245283 51.294791 4.87992453 50.9379096 4.16935849 51.294791 3.696 51.5332429 3.28181132 52.1880565 3.22264151 52.603887 3.04513208 52.9607684 3.164 53.4366102 3.28181132 53.6150508 3.696 53.8535028 4.28769811 53.7345424 5.11660377 53.7345424 5.82664151 53.7350734 7.54309434 53.7350734 9.25954717 53.7350734 11.0351698L53.7350734 11.0351698 53.7350734 11.0351698 53.7350734 11.0351698zM60.8153446 12.1599245C60.9937853 11.5676981 62.0049492 10.976 62.5413333 10.7393208L62.5413333 10.6209811C63.255096 11.3901887 61.4696271 12.3966038 60.8742938 12.5149434L60.8742938 12.3966038C60.6958531 12.3966038 60.7558644 12.337434 60.8153446 12.1599245L60.8153446 12.1599245 60.8153446 12.1599245 60.8153446 12.1599245zM62.9571638 21.0972075C62.719774 21.5113962 62.3618305 21.6302642 61.8865198 21.6302642 60.5174124 21.5710943 60.8148136 17.7234717 60.7558644 16.5997736 60.6958531 15.8892075 60.3979209 14.7644528 60.6958531 14.0549434 60.8742938 13.6993962 61.2911864 13.462717 61.6480678 13.2852075L61.6480678 13.1668679 62.8376723 13.1668679C62.8976836 13.5218868 62.9571638 13.8769057 63.016113 14.1727547 63.0761243 15.4750189 63.0761243 16.7175849 63.0761243 18.0198491 63.0761243 18.966566 63.3140452 20.2683019 62.9571638 21.0972075L62.9571638 21.0972075 62.9571638 21.0972075 62.9571638 21.0972075zM23.5100904 17.3684528L23.5100904 17.1317736C23.2121582 17.1317736 22.7363164 16.7767547 22.6173559 16.5400755 22.2604746 15.7708679 22.4983955 13.8763774 22.4983955 12.9296604 22.4983955 11.9824151 22.4983955 10.9765283 22.3199548 10.1476226 21.9630734 8.60867925 20.7729379 7.18807547 19.7022938 6.00467925 19.5238531 5.768 19.2859322 5.64966038 18.9285198 5.70883019 18.3337175 5.70883019 16.3108588 6.47803774 15.9534463 6.89222642 15.3586441 7.66196226 15.7750056 9.37841509 16.2513785 10.029283 16.2513785 10.1481509 16.1918983 10.1481509 16.370339 10.1481509 16.370339 9.73396226 17.0246215 9.43758491 17.2630734 9.26007547 17.8578757 8.96422642 18.6905989 8.31335849 19.3454124 8.96422642 20.000226 9.61509434 19.4048927 13.758566 19.4643729 14.9419623L19.4643729 16.362566C19.4048927 16.8359245 19.4048927 17.3684528 19.0480113 17.7234717L19.0480113 17.8423396C18.2147571 17.8423396 17.5604746 13.5213585 18.2742373 12.6929811 18.2147571 12.3971321 18.0957966 12.1007547 18.0363164 11.8049057L17.7389153 11.8049057C17.7389153 12.2190943 14.6448814 11.9824151 14.4069605 11.5682264 14.1690395 11.0948679 14.4069605 10.5026415 14.3474802 10.029283 14.288 9.02339623 14.0500791 7.78030189 14.2285198 6.71524528 14.5259209 5.2354717 15.2996949 3.99290566 15.7160565 2.6314717L12.2651412 2.6314717C11.967209 2.80898113 11.6698079 2.98649057 11.3724068 3.1645283 11.1344859 3.1645283 10.8370847 3.22316981 10.7770734 3.46037736 10.658113 3.99343396 10.9555141 4.7034717 10.9555141 5.29516981 10.9555141 7.72166038 10.8960339 10.2078491 10.8365537 12.6343396 10.7770734 12.9893585 10.5391525 13.1673962 10.2417514 13.2852075L10.2417514 13.4035472 10.0038305 13.4035472C10.0038305 13.2852075 10.0038305 13.2852075 9.82538983 13.2852075 9.82538983 13.5815849 8.45681356 14.5283019 8.21889266 14.8241509L7.80253107 14.8241509 7.80253107 14.705283 7.68357062 14.705283C7.68357062 13.758566 7.8620113 12.8113208 7.8620113 11.9237736 7.8620113 10.9173585 7.6240904 9.79313208 7.68357062 8.72754717 7.74305085 7.95781132 8.27837288 4.76211321 7.8620113 4.17041509 7.44564972 3.57818868 5.00589831 4.05207547 4.35161582 4.05207547 3.99473446 4.11124528 3.63785311 4.11124528 3.28044068 4.11124528 2.92355932 4.22958491 3.3999322 4.99932075 3.51836158 5.17683019 4.17264407 6.30158491 4.05368362 8.01803774 3.87524294 9.3794717 3.87524294 9.85283019 3.93472316 10.2670189 3.93472316 10.7409057 3.87524294 11.3326038 3.81576271 11.9248302 3.75628249 12.5165283 3.69680226 13.5821132 4.11316384 14.7063396 3.75628249 15.5938868L3.75628249 15.7127547C2.98250847 15.7127547 1.73342373 14.3513208 1.4360226 13.8187925 1.07914124 13.8187925 1.85238418 13.226566 1.91186441 13.1679245 2.14978531 13.1679245 2.08977401 12.694566 2.20926554 12.5170566L2.20926554 12.398717 2.09030508 12.398717C2.09030508 12.2212075 1.97134463 12.2803774 1.79290395 12.2803774.662779661 12.398717.00796610169 13.2862642.365378531 14.4110189.841220339 15.8310943 2.44771751 16.0091321 3.3999322 16.9558491 3.93525424 17.4883774 3.87577401 22.0460377 3.51889266 22.7560755 3.22149153 23.4661132 2.50772881 23.8803019 2.09083616 24.472L1.91292655 24.472 1.91292655 24.7092075C2.56720904 24.6500377 3.16254237 24.5903396 3.75734463 24.472 4.94748023 24.4133585 6.61345763 24.6500377 7.56514124 25.2417358 7.74358192 25.2417358 7.68410169 25.182566 7.80306215 25.1233962 7.80306215 23.8797736 6.79189831 17.9020377 7.44618079 17.2511698 7.68410169 16.9553208 8.21942373 16.9553208 8.51735593 16.8375094 9.23111864 16.6008302 9.8259209 16.0677736 10.4807345 15.7127547 10.4807345 15.5352453 10.5402147 15.5938868 10.7186554 15.5938868L10.7186554 15.7127547C10.9565763 15.7127547 10.7781356 16.8375094 10.7781356 17.1328302 10.897096 17.8433962 11.0160565 18.6126038 11.0760678 19.3823396 11.0760678 19.9740377 11.0165876 20.5657358 11.0165876 21.157434 10.9571073 23.4655849 10.600226 24.7092075 8.81475706 26.129283L8.81475706 26.4843019C10.1833333 26.5434717 11.5519096 26.5434717 12.9199548 26.5434717 13.9911299 26.6623396 14.8833333 26.9576604 15.835548 27.1351698L15.835548 27.0168302 15.7165876 27.0168302C15.7165876 26.7204528 15.0623051 26.2470943 14.9433446 25.9512453 14.6454124 25.4181887 14.3480113 24.8264906 14.2290508 24.1756226 14.0506102 22.9916981 14.3480113 21.8083019 14.4074915 20.6835472 14.3480113 19.3818113 14.2885311 18.138717 14.2290508 16.8369811 14.1695706 15.6530566 14.2885311 14.4696604 14.3480113 13.2852075L14.4669718 13.2852075 14.4669718 13.1668679 15.7165876 13.1668679 15.7165876 13.2852075 15.835548 13.2852075 15.835548 13.5815849C15.6571073 13.5815849 15.4786667 13.7590943 15.3597062 13.8182642 14.3480113 14.5283019 15.2407458 16.1264151 15.4191864 17.0144906 15.6571073 18.0203774 15.5976271 19.2634717 16.3708701 20.0326792 17.0851638 20.6835472 18.0368475 19.6184906 18.8106215 19.6184906 19.2269831 19.6184906 19.4054237 19.8551698 19.8217853 19.9148679 20.1786667 19.9740377 20.5955593 19.9740377 20.9524407 20.0332075 20.9524407 19.0864906 22.6778983 17.902566 23.391661 17.3700377 23.4506102 17.3684528 23.4506102 17.3684528 23.5100904 17.3684528L23.5100904 17.3684528 23.5100904 17.3684528 23.5100904 17.3684528zM43.6202486 9.61509434C43.2633672 9.49675472 41.2405085 9.37841509 40.9425763 9.67426415 41.0020565 9.97011321 41.0615367 10.3251321 41.1210169 10.6215094 41.1210169 11.390717 40.5256836 13.2255094 40.0498418 13.758566 39.8714011 13.9952453 39.6334802 14.1135849 39.3360791 14.0549434 39.1576384 13.9957736 38.9791977 13.9360755 38.8602373 13.6993962 38.7412768 13.462717 38.265435 11.5687547 38.3249153 11.2729057 38.4438757 10.7995472 38.9202486 10.6220377 38.8007571 10.0298113 38.8007571 9.79313208 38.7412768 9.79313208 38.5628362 9.73396226L38.5628362 9.85230189C38.0275141 10.0298113 37.4321808 10.2073208 36.8968588 10.3853585L35.6472429 10.3853585C35.1714011 10.3853585 34.635548 10.3853585 34.3381469 10.0889811 33.8623051 9.67479245 34.100226 7.60332075 34.100226 6.83358491L34.635548 6.83358491C34.635548 7.66196226 35.409322 8.25418868 34.635548 8.96422642L34.635548 9.26007547C34.8734689 9.26007547 34.9924294 9.49675472 35.3498418 9.49675472 35.9451751 9.43758491 36.5399774 8.84588679 37.0158192 8.60867925 37.5511412 8.372 38.0269831 8.19449057 38.5628362 7.95781132L38.6817966 7.95781132C38.6817966 7.42528302 36.5994576 4.70241509 36.0636045 4.52490566 35.409322 4.34739623 34.8139887 4.64377358 34.2191864 4.82128302L34.2191864 4.64377358 34.0996949 4.64377358C34.0996949 4.05154717 34.1591751 3.45984906 33.9807345 2.86815094 32.8500791 3.63788679 31.6009944 5.17630189 30.4108588 5.53184906 30.4108588 5.82769811 31.0651412 6.12354717 31.1246215 6.95245283L31.1246215 9.49728302C31.0651412 9.85230189 31.0651412 10.1481509 31.005661 10.5031698 31.1246215 12.2196226 31.2435819 14.4691321 30.7077288 15.9483774 30.4698079 16.7181132 29.6365537 17.1323019 29.2201921 17.8428679L29.1012316 17.8428679 29.1012316 18.0203774C29.9339548 18.0203774 30.8861695 18.138717 31.778904 18.138717 32.7900678 18.138717 33.7422825 17.9612075 34.6344859 18.138717L34.6344859 17.8428679C34.396565 17.8428679 34.1586441 17.3695094 34.0991638 17.192 33.8017627 16.3039245 34.0396836 15.12 34.0991638 14.173283L34.0991638 11.154566 34.2186554 11.154566 34.2186554 11.0362264C35.4082599 11.0362264 37.0742373 17.192 36.8363164 18.4942642 36.7768362 18.6126038 34.8134576 21.3349434 34.6944972 21.4538113 34.0402147 21.9863396 29.8750056 21.868 29.696565 21.0982642 29.3986328 20.0923774 31.4220226 19.8551698 32.1952655 19.9148679L32.1952655 19.7965283 32.3147571 19.7965283 32.3147571 19.6776604 32.1952655 19.6776604C32.1952655 19.4409811 32.0763051 19.5001509 31.9573446 19.5001509 30.8861695 19.5001509 29.5181243 19.6776604 28.6259209 19.3818113L28.3279887 19.3818113C28.3279887 20.0321509 27.1978644 21.0977358 27.3168249 21.689434 27.4952655 22.8141887 33.8017627 24.1164528 35.1108588 23.761434 35.7651412 23.5247547 36.7768362 22.6958491 37.253209 22.1633208 37.4905989 21.8674717 37.6695706 21.5124528 37.8480113 21.2166038 38.6212542 20.0918491 39.3950282 18.9084528 40.0493107 17.7245283 40.7035932 16.3636226 41.2394463 14.9424906 42.0126893 13.6999245 42.6669718 12.6343396 43.9165876 11.8059623 44.035548 10.5036981 44.0366102 10.1476226 43.9771299 9.73343396 43.6202486 9.61509434L43.6202486 9.61509434 43.6202486 9.61509434 43.6202486 9.61509434z"/>
      <path d="M27.2584068 14.1722264C27.0799661 12.633283 27.1394463 11.1535094 27.0204859 9.61509434 27.0204859 8.9045283 26.8420452 8.25366038 26.8420452 7.48445283L26.9610056 7.48445283 26.9610056 7.3069434 27.317887 7.3069434C27.4368475 7.66196226 27.4963277 7.95781132 27.6158192 8.25418868 27.7942599 8.96422642 27.9132203 10.0889811 27.6158192 10.7398491L27.6158192 10.9173585 27.7347797 10.9173585 27.7347797 11.0356981C28.2106215 11.0356981 28.864904 10.5623396 29.2817966 10.3256604 29.5791977 10.1481509 30.0550395 9.97064151 30.2334802 9.67479245 30.8877627 8.3725283 29.6381469 5.94603774 29.1028249 4.94015094 28.6864633 4.94015094 28.3290508 5.29516981 27.9126893 5.41350943 26.782565 5.65018868 26.9610056 4.58513208 27.0799661 3.93373585 26.8420452 3.87456604 26.6636045 3.81539623 26.4256836 3.75622642 25.9498418 3.93373585 25.474 3.99290566 25.0571073 4.22958491 24.1054237 4.82181132 23.3316497 5.94603774 22.2604746 6.41939623L22.2604746 6.71577358 22.379435 6.71577358 22.379435 6.83411321C22.9747684 6.83411321 23.152678 6.47909434 23.8669718 6.71577358 23.926452 7.01162264 23.9859322 7.3074717 24.0454124 7.60384906 23.926452 9.26113208 24.2238531 10.9775849 24.2833333 12.6940377 24.1643729 13.8187925 24.1048927 14.9430189 24.0454124 16.1269434 23.9859322 16.6003019 24.1643729 17.1328302 23.9859322 17.5470189 23.8669718 17.9020377 23.3316497 18.138717 23.152678 18.4942642L22.9747684 18.4942642 22.9747684 18.6126038C24.461774 18.6126038 25.4139887 18.4350943 26.7230847 18.9089811 26.7230847 18.6723019 27.3773672 18.1392453 27.6158192 18.0209057 27.4963277 16.7175849 27.3773672 15.4744906 27.2584068 14.1722264L27.2584068 14.1722264 27.2584068 14.1722264 27.2584068 14.1722264zM83.3652542 18.1376604L83.2457627 18.1376604C83.1262712 18.3743396 83.067322 18.6110189 83.0083729 18.9073962 82.7104407 19.7954717 82.5914802 20.9196981 81.9366667 21.6889057L81.9366667 21.8077736C80.6875819 21.8077736 80.6875819 16.1258868 80.6875819 14.9419623L80.8060113 14.9419623C80.8060113 14.705283 80.984452 14.8236226 81.1628927 14.8833208 82.3535593 15.0608302 84.2569266 16.2442264 85.1501921 15.0016604 85.9829153 13.9360755 85.6260339 12.3976604 85.0307006 11.3912453 84.911209 11.154566 84.7933107 10.858717 84.6738192 10.6220377 83.7805537 9.73396226 82.3535593 9.20143396 81.1628927 8.84641509 81.1628927 8.84641509 79.0221356 10.5036981 78.7836836 11.0362264 78.3078418 11.0362264 78.1883503 10.4445283 78.0099096 10.1486792 78.0099096 9.85230189 76.2849831 9.85230189 75.9281017 9.85230189L75.9281017 9.73396226C75.749661 9.73396226 75.8086102 9.55645283 75.8086102 9.3789434 75.8675593 8.07667925 76.5223729 6.36022642 75.9281017 5.17630189L75.9281017 5.05796226C75.8086102 5.05796226 75.8086102 4.99879245 75.8086102 5.17630189 75.0348362 5.17630189 73.5472994 8.07667925 73.1314689 8.72754717 72.7145763 8.72754717 72.5361356 8.13532075 72.3576949 7.84 71.9418644 7.72113208 71.5249718 7.60332075 71.1086102 7.48498113 70.8701582 7.48498113 70.9891186 7.36664151 70.9891186 7.18860377 70.9891186 6.18271698 71.4649605 4.52490566 70.7506667 3.75569811 69.6200113 4.93962264 68.5493672 6.00467925 67.3597627 7.01109434 66.7644294 7.54362264 65.5748249 8.13532075 65.2179435 8.72754717 65.0395028 8.72754717 65.098452 8.66837736 65.098452 8.84588679L65.2179435 8.84588679C65.2179435 9.26007547 67.4792542 8.66837736 67.5971525 10.2659623L67.5971525 12.1599245C67.7755932 15.5336604 67.0028814 19.1440755 67.4787232 22.4586415 67.5376723 22.8728302 67.4787232 23.4645283 67.716113 23.8200755 68.251435 24.5301132 70.095322 25.2998491 71.1080791 25.3590189L71.1080791 25.2401509 71.2265085 25.2401509C71.2265085 24.4117736 70.3343051 23.9970566 70.2742938 23.2273208 70.3343051 22.4581132 70.3937853 21.7480755 70.4537966 21.0375094 70.4537966 19.0843774 70.4537966 17.130717 70.5127458 15.1775849 70.5716949 14.1716981 70.6911864 13.165283 70.810678 12.1593962 70.8696271 11.1529811 70.6911864 10.265434 70.572226 9.37735849L70.7506667 9.37735849C70.7506667 9.19984906 71.881322 9.25901887 72.119774 9.25901887L72.119774 9.37735849C72.2982147 9.37735849 71.5244407 10.7979623 71.4654915 11.1529811L71.6439322 11.1529811 71.6439322 11.2713208C72.2982147 11.2713208 72.8930169 11.0938113 73.0714576 11.9221887 73.3099096 13.1061132 73.0714576 14.4675472 73.0125085 15.5917736 72.9535593 16.3615094 73.3104407 16.8940377 73.1909492 17.7224151 72.9535593 19.9127547 72.1203051 23.1084528 73.8452316 24.7657358 74.6779548 25.5941132 76.0470621 26.1863396 77.1177062 26.6602264 78.6052429 27.310566 79.0221356 26.7188679 80.0332994 25.7129811 80.3901808 25.3579623 80.6875819 24.9432453 81.0444633 24.5882264 81.222904 24.5882264 81.1628927 24.6473962 81.1628927 24.4693585 80.9255028 24.4693585 80.7470621 24.2332075 80.5096723 24.1143396 80.0338305 23.8776604 79.0816158 23.7001509 78.4857514 23.9368302L76.819774 23.9368302 76.819774 24.1143396 76.7002825 24.1143396C76.7002825 24.4693585 78.4852203 24.8249057 78.902113 24.8249057L78.902113 25.0024151 79.0216045 25.0024151 79.0216045 25.2390943C78.7831525 25.2982642 78.4852203 25.3579623 78.2478305 25.4166038 77.7719887 25.4166038 76.6413333 25.0615849 76.3434011 24.706566 75.8675593 24.1735094 76.1060113 17.3076981 76.0465311 15.9462642 76.0465311 14.4670189 75.9270395 12.8689057 75.9270395 11.2707925L76.1054802 11.2707925C76.1054802 11.093283 78.0688588 11.1524528 78.3657288 11.3891321 78.5452316 11.3891321 78.4852203 11.3299623 78.4852203 11.5074717 78.3067797 11.5074717 78.1872881 11.8033208 78.128339 11.9808302 77.6524972 12.8689057 77.7714576 14.0528302 77.6524972 15.058717 77.593548 16.4196226 77.2956158 18.077434 77.7125085 19.3796981 78.1878192 21.1547925 80.4485989 22.5167547 82.0556271 23.0487547 82.0556271 22.8712453 82.5909492 22.5753962 82.8294011 22.3978868 83.1862825 21.9836981 83.4836836 21.5098113 83.7805537 21.0956226 84.6738192 19.7954717 84.6738192 19.2032453 83.3652542 18.1376604L83.3652542 18.1376604 83.3652542 18.1376604 83.3652542 18.1376604zM81.1628927 10.3843019C82.4719887 10.6801509 82.8299322 12.4557736 82.9478305 13.6983396L82.9478305 14.0538868C82.293548 14.0538868 81.758226 13.8172075 81.0444633 13.8172075L81.0444633 13.6983396C80.7470621 13.6988679 80.984452 10.7984906 81.1628927 10.3843019L81.1628927 10.3843019 81.1628927 10.3843019 81.1628927 10.3843019z"/>
      <path d="M91.9325311,8.19449057 C90.9213672,8.19449057 90.3260339,9.02286792 89.6122712,9.49675472 C89.6122712,9.31924528 89.3738192,9.14173585 89.314339,8.96422642 C89.1948475,8.43169811 89.314339,8.01750943 88.8384972,7.72113208 L88.8384972,7.84 C87.9462938,7.84 86.3397966,10.2664906 85.5070734,10.9173585 L85.5070734,11.2723774 C85.7444633,11.2723774 85.9829153,11.4498868 86.1613559,11.5090566 C86.2203051,12.1007547 86.2808475,12.633283 86.3397966,13.1663396 C86.2808475,13.5805283 86.2808475,13.994717 86.2203051,14.4686038 C86.2803164,16.0661887 86.3397966,17.9009811 86.2203051,19.4990943 C86.1008136,20.5049811 86.1008136,21.3338868 85.6849831,22.1622642 C85.4475932,22.6356226 84.911209,22.932 84.375887,23.0503396 C84.375887,23.346717 84.5543277,23.5236981 84.7927797,23.6420377 C85.3281017,23.878717 85.9223729,23.8200755 86.5177062,23.9384151 C87.4099096,24.057283 88.1242034,24.4117736 88.9574576,24.5301132 C89.4927797,24.6489811 90.088113,24.7081509 90.623435,24.8264906 C91.0992768,24.8856604 91.6345989,24.9448302 92.1699209,25.004 C92.5268023,24.9448302 92.6457627,24.7081509 92.9436949,24.4709434 L92.9436949,24.3526038 C91.8130395,24.3526038 90.5644859,24.0567547 89.9096723,23.2870189 C89.1358983,22.2811321 89.4338305,18.9073962 89.4338305,17.4867925 C89.3738192,16.7175849 89.314339,15.9478491 89.2553898,15.1786415 C89.1953785,13.8763774 89.3738192,12.5154717 89.3738192,11.1540377 L89.4933107,11.1540377 C89.4933107,10.9173585 89.9691525,11.0948679 90.1475932,11.1540377 C90.1475932,12.3379623 90.9803164,13.5213585 90.1475932,14.5869434 L90.1475932,14.705283 L89.9691525,14.705283 L89.9691525,14.8241509 C90.7429266,14.8241509 91.397209,14.173283 91.9325311,13.6993962 C92.4083729,13.2852075 93.1816158,12.9301887 93.5390282,12.3976604 C93.9553898,11.7457358 92.2304633,8.9045283 91.9325311,8.19449057 L91.9325311,8.19449057 L91.9325311,8.19449057 L91.9325311,8.19449057 Z"/>
    </g>
  </g>
</svg>
