<svg xmlns="http://www.w3.org/2000/svg" width="128" height="23" viewBox="0 0 128 23">
  <g fill="none" fill-rule="evenodd" transform="translate(0 -52.313)">
    <rect width="128" height="128"/>
    <g fill="#4A4A4A" transform="translate(0 53)">
      <polygon points=".112 1.857 .112 5.073 6.689 5.073 6.689 18.53 12.327 18.53 12.327 5.073 18.199 5.073 18.199 1.857"/>
      <path d="M70.9352996,1.85662745 L70.9352996,14.9580444 C70.9352996,17.6976627 68.3517052,20.0798745 64.0058987,18.2920941 L64.0058987,21.5080052 C67.8812902,22.5802248 76.5736405,21.1513463 76.5736405,13.1725072 L76.5736405,1.85662745 L70.9352996,1.85662745 L70.9352996,1.85662745 L70.9352996,1.85662745 L70.9352996,1.85662745 L70.9352996,1.85662745 Z"/>
      <path d="M84.4423964,10.908434 L87.1439631,6.85882353 L89.9620277,10.908434 L84.4423964,10.908434 L84.4423964,10.908434 L84.4423964,10.908434 L84.4423964,10.908434 L84.4423964,10.908434 Z M82.3277419,14.1243451 L92.193917,14.1243451 L95.2471889,18.5306144 L101.472442,18.5306144 L89.0226729,1.02292811 L87.6129033,1.02292811 L75.5148386,18.5306144 L79.5096774,18.5306144 L82.3277419,14.1243451 L82.3277419,14.1243451 L82.3277419,14.1243451 L82.3277419,14.1243451 L82.3277419,14.1243451 Z"/>
      <polygon points="101.942 1.857 101.942 18.53 105.231 18.53 105.231 8.645 120.969 18.53 122.497 18.53 122.497 1.857 119.207 1.857 119.207 11.742 103.704 1.857"/>
      <path d="M50.4 5.07253855C49.0919817 5.07253855 48.0317052 6.14774902 48.0317052 7.47344314L48.0317052 12.9137987C48.0317052 14.2394928 49.0919817 15.3147033 50.4 15.3147033L58.8188019 15.3147033C60.126083 15.3147033 61.1863595 14.2394928 61.1863595 12.9137987L61.1863595 7.47344314C61.1863595 6.14774902 60.126083 5.07253855 58.8188019 5.07253855L50.4 5.07253855 50.4 5.07253855 50.4 5.07253855 50.4 5.07253855 50.4 5.07253855zM48.4836866 1.85662745L60.7358526 1.85662745C64.0980644 1.85662745 66.8239631 4.62092027 66.8239631 8.0304889L66.8239631 12.3575007C66.8239631 15.767817 64.0980644 18.5306144 60.7358526 18.5306144L48.4836866 18.5306144C45.1207373 18.5306144 42.3948386 15.767817 42.3948386 12.3575007L42.3948386 8.0304889C42.3948386 4.62092027 45.1207373 1.85662745 48.4836866 1.85662745L48.4836866 1.85662745 48.4836866 1.85662745 48.4836866 1.85662745 48.4836866 1.85662745zM24.9142857 10.8089882L34.8777879 18.5298667 42.8645161 18.5298667 33.9561291 11.7421333 38.0298618 11.7421333C39.3371428 11.7421333 40.3974193 10.6669229 40.3974193 9.34122875L40.3974193 4.25753203C40.3974193 2.93183792 39.3371428 1.85662745 38.0298618 1.85662745L19.3924424 1.85662745 19.3924424 18.5306144 25.0116128 18.5306144 24.9142857 10.8089882 24.9142857 10.8089882 24.9142857 10.8089882 24.9142857 10.8089882 24.9142857 10.8089882zM24.968848 5.07179086L33.7459908 5.07179086C34.3063595 5.07179086 34.760553 5.53238169 34.760553 6.10064314L34.760553 8.09329674C34.760553 8.66155816 34.3063595 9.12214902 33.7459908 9.12214902L24.968848 9.12214902 24.968848 5.07179086 24.968848 5.07179086 24.968848 5.07179086 24.968848 5.07179086 24.968848 5.07179086zM125.497511.384381699C126.635207.384381699 127.516313 1.30481569 127.516313 2.49891243 127.516313 3.71917909 126.635207 4.64036078 125.497511 4.64036078 124.346544 4.64036078 123.465438 3.71992679 123.465438 2.49891243 123.465438 1.30481569 124.347281.384381699 125.497511.384381699L125.497511.0180026151C124.149677.0180026151 123.01788 1.09171765 123.01788 2.49891243 123.01788 3.93302483 124.149677 5.00673988 125.497511 5.00673988 126.839447 5.00673988 127.964608 3.93302483 127.964608 2.49891243 127.964608 1.09171765 126.840184.0180026151 125.497511.0180026151L125.497511.384381699 125.497511.384381699 125.497511.384381699 125.497511.384381699 125.497511.384381699z"/>
      <path d="M124.985069,1.41846797 L125.577143,1.41846797 C125.879447,1.41846797 126.209032,1.47828497 126.209032,1.8656 C126.209032,2.32619086 125.846267,2.34563137 125.451797,2.34563137 L124.985069,2.34563137 L124.985069,2.71275816 L125.459171,2.71275816 L126.241475,3.96667189 L126.722212,3.96667189 L125.900092,2.6791111 C126.327742,2.63275294 126.655853,2.41292549 126.655853,1.88504052 C126.655853,1.32500392 126.332903,1.05134118 125.649401,1.05134118 L124.538986,1.05134118 L124.538986,3.96592419 L124.985069,3.96592419 L124.985069,1.41846797 L124.985069,1.41846797 L124.985069,1.41846797 L124.985069,1.41846797 L124.985069,1.41846797 Z"/>
    </g>
  </g>
</svg>
