<svg xmlns="http://www.w3.org/2000/svg" width="128" height="24" viewBox="0 0 128 24">
  <g fill="none" fill-rule="evenodd" transform="translate(0 -51.625)">
    <rect width="128" height="128"/>
    <path fill="#4A4A4A" d="M10.1998298,8.74697143 C9.69395745,9.35862857 9.14791489,10.0923429 9.14791489,11.1922286 C9.14791489,13.2500571 10.3217021,14.8601143 12.4255319,14.8601143 C15.218383,14.8601143 15.7644255,11.9876571 15.7644255,10.6217143 C15.7644255,10.4626286 15.7555745,10.3104 15.739234,10.1650286 L15.739234,10.1650286 C16.48,10.0505143 17.2194043,9.73782857 17.9131915,9.28182857 L17.9165957,9.28388571 C17.9506383,10.6518857 17.9894468,11.9766857 17.9894468,12.5780571 C17.9697021,14.4733714 18.1106383,14.6982857 18.6975319,14.6982857 C19.3245957,14.6982857 19.6691064,13.4139429 20.256,12.1913143 C20.9443404,10.6628571 21.6728511,9.1344 22.1174468,9.1344 C22.9474043,9.1344 21.4495319,14.7798857 23.4525957,14.7785143 C24.868766,14.7785143 26.9732766,9.0528 27.8842553,9.0528 C28.5923404,9.0528 27.1550638,14.7798857 28.7339574,14.7785143 C29.8873191,14.7785143 31.8502128,8.95062857 32.5181277,8.95062857 C33.2064681,8.95062857 31.789617,14.7785143 33.8335319,14.7785143 C35.675234,14.7785143 37.1724255,9.99017143 37.6782979,9.99017143 C37.9213617,9.99017143 38.3768511,10.6313143 38.701617,11.5104 L38.6995745,11.5337143 C38.0609362,12.336 37.6585532,13.1046857 37.6585532,13.6793143 C37.6585532,14.4130286 38.2257021,14.7792 38.7914894,14.7792 C39.6418723,14.7792 40.4711489,13.8630857 40.4711489,12.5382857 C40.4711489,12.2612571 40.448,11.4699429 40.1388936,10.6779429 L40.1402553,10.6697143 C41.4120851,9.48205714 43.0570213,8.44731429 44.0524255,8.27862857 C43.4859574,8.93074286 42.4537872,9.50125714 42.4537872,11.3561143 C42.4537872,13.3529143 43.9714043,14.8813714 45.9138723,14.8813714 C48.6454468,14.8813714 49.2323404,11.9472 49.2323404,10.8061714 C49.2323404,10.3906286 49.179234,10.0162286 49.0845957,9.68228571 L49.0818723,9.6864 C50.0098723,9.24617143 50.7111489,8.6256 50.9725957,8.6256 C51.5397447,8.6256 51.3171064,10.3577143 51.3171064,12.1522286 C51.3171064,13.4969143 51.1142128,14.8813714 52.1062128,14.8813714 C52.8551489,14.8813714 53.2187234,13.3947429 53.9676596,12.0699429 C54.6961702,10.7650286 55.4852766,8.99177143 55.7889362,8.99177143 C56.1940426,8.99177143 56.032,11.7229714 56.032,12.2530286 C56.032,12.9250286 55.9101277,15.0438857 57.2861277,15.0438857 C58.2168511,15.0438857 59.9571064,12.4148571 59.9571064,12.0692571 C59.9571064,11.8854857 59.9571064,11.8443429 59.8154894,11.8443429 C59.6738723,11.8443429 58.6008511,13.6176 58.176,13.6176 C57.5686809,13.6176 57.9533617,11.3554286 57.9533617,9.68434286 C57.9533617,8.95062857 58.0541277,7.32068571 56.8401702,7.32068571 C55.3021277,7.32068571 53.8049362,11.6818286 53.339234,11.6818286 C52.8939574,11.6811429 53.9867234,7.48388571 52.0646809,7.48388571 C51.2830638,7.48388571 50.1208511,8.55291429 48.8524255,9.10217143 L48.8599149,9.10491429 C48.3928511,8.18194286 47.5547234,7.70811429 46.7431489,7.70811429 C46.1562553,7.70811429 45.7109787,8.15657143 45.7109787,8.62491429 C45.7109787,9.25645714 46.2168511,10.1122286 47.3906383,10.1122286 C47.7133617,10.1122286 48.027234,10.0594286 48.3268085,9.9744 L48.3404255,9.97988571 C48.4466383,10.3261714 48.5051915,10.6738286 48.5045106,10.9481143 C48.5045106,12.0281143 47.7766809,13.4338286 46.3802553,13.4338286 C45.2874894,13.4338286 44.3159149,12.2729143 44.3159149,10.8459429 C44.3159149,8.52205714 45.7123404,8.13531429 45.7123404,7.66628571 C45.7123404,7.46262857 45.5502979,7.42217143 45.2466383,7.42217143 C43.6861277,7.42217143 41.540766,8.7216 39.9298723,10.2192 L39.9237447,10.2178286 C39.8685957,10.1190857 39.8086809,10.0230857 39.7426383,9.92845714 C38.1841702,7.68685714 38.7914894,7.19794286 38.3870638,7.19794286 C37.8811915,7.19794286 35.6146383,13.4139429 34.7240851,13.4139429 C33.5502979,13.4139429 35.6956596,7.42217143 33.4093617,7.42217143 C31.6085106,7.42217143 30.5763404,12.1296 29.8886809,12.1296 C29.2214468,12.1296 30.5559149,7.42217143 28.6134468,7.42217143 C27.2177021,7.42217143 25.1329362,13.0470857 24.2226383,13.0470857 C23.4539574,13.0470857 24.9307234,7.50445714 23.1502979,7.50445714 C21.4502128,7.50445714 20.1150638,11.8450286 19.6902128,11.8450286 C19.3348085,11.8450286 19.4110638,10.4893714 19.4253617,8.0016 L19.4314894,7.98445714 C20.8251915,6.47588571 21.7947234,4.40914286 21.7954043,2.45142857 C21.7954043,1.53462857 21.3501277,0.8208 20.5004255,0.821485714 C18.8411915,0.821485714 17.869617,3.4704 17.869617,6.38468571 C17.869617,7.02034286 17.8839149,7.83154286 17.9029787,8.66468571 L17.8982128,8.67497143 C17.1281702,9.24548571 16.4030638,9.54377143 15.9877447,9.54377143 C15.8726809,9.54377143 15.7467234,9.54445714 15.6132766,9.54582857 L15.6139574,9.54651429 C15.2313191,8.29028571 14.2025532,7.73005714 13.458383,7.73005714 C12.8714894,7.73005714 12.4064681,8.28 12.4064681,8.74902857 C12.4064681,9.44022857 13.0158298,10.1712 14.9365106,10.2137143 L14.9405957,10.2178286 C14.9916596,10.4694857 15.0168511,10.7163429 15.0168511,10.9289143 C15.0168511,12.0089143 14.2277447,13.4770286 12.832,13.4770286 C11.6173617,13.4770286 10.7070638,12.0912 10.7070638,10.5620571 C10.7070638,8.60571429 12.0020426,7.99405714 12.0020426,7.85142857 C12.0020426,7.76982857 11.981617,7.68822857 11.9414468,7.68822857 C10.6566809,7.68822857 8.56102128,9.11314286 6.58587234,11.1812571 L6.58246809,11.1805714 C6.35914894,9.46902857 6.09293617,7.44685714 6.09293617,5.08045714 C6.09293617,1.65668571 6.72068085,1.20891429 6.72068085,0.760457143 C6.72068085,0.5568 6.66008511,0.474514286 6.31557447,0.474514286 C5.54689362,0.474514286 0.569191489,2.73668571 0.569191489,7.74994286 C0.569191489,11.6057143 2.67574468,13.3193143 4.03268085,14.3595429 L4.03268085,14.3595429 C2.57770213,16.536 1.54076596,18.9277714 1.54076596,21.0171429 C1.54076596,22.1986286 2.00646809,23.3609143 2.87591489,23.3609143 C4.25191489,23.3609143 6.88204255,20.4253714 6.8827234,14.4144 C6.8827234,13.6244571 6.7812766,12.7241143 6.65123404,11.7065143 L6.65191489,11.7030857 C7.83046809,10.4502857 9.09412766,9.41691429 10.1998298,8.74697143 L10.1998298,8.74697143 L10.1998298,8.74697143 L10.1998298,8.74697143 Z M116.051745,9.35657143 L116.054468,9.34902857 C115.797787,8.84982857 115.433532,8.4624 114.995745,8.4624 C114.793532,8.4624 114.611745,8.66605714 114.611745,8.82925714 C114.611745,9.19611429 114.956255,9.42034286 115.481191,9.42034286 C115.673191,9.41965714 115.863149,9.39702857 116.051745,9.35657143 L116.051745,9.35657143 L116.051745,9.35657143 L116.051745,9.35657143 Z M72.2805106,13.9501714 C72.5344681,13.5874286 72.8006809,13.2322286 73.0730213,12.8852571 L73.0873191,12.8530286 C72.7550638,11.0756571 72.4010213,9.36137143 72.4010213,8.09485714 C72.4010213,4.488 73.9594894,1.92 73.9594894,1.36937143 C73.9594894,1.00251429 74.020766,0.941485714 73.7572766,0.941485714 C73.5748085,0.941485714 70.0139574,2.46994286 70.0139574,7.87062857 C70.0146383,10.0477714 71.0209362,12.7124571 72.2805106,13.9501714 L72.2805106,13.9501714 L72.2805106,13.9501714 L72.2805106,13.9501714 Z M72,14.3595429 C71.4975319,13.9748571 71.0304681,13.3138286 70.317617,12.8235429 C69.7164255,12.4086857 68.1314043,12.8585143 66.756766,13.1088 L66.7540426,13.1115429 C66.6342128,13.9097143 66.3618723,14.6982857 66.0888511,14.6982857 C65.9104681,14.6982857 65.8321702,14.0660571 65.6088511,13.3323429 L65.595234,13.3227429 C64.9811064,13.4338286 64.4609362,13.5154286 64.1457021,13.5154286 C63.1945532,13.5154286 61.0090213,13.0868571 61.0090213,11.6406857 C61.0090213,10.8260571 61.92,10.4996571 62.7901277,10.4996571 C63.7814468,10.4996571 65.3596596,11.2128 65.7443404,11.9876571 C65.8451064,10.6018286 64.8531064,9.84754286 64.8531064,9.62331429 C64.8531064,9.39908571 65.9261277,8.99177143 66.0275745,8.99177143 C66.4531064,8.99177143 66.8173617,10.9481143 66.8173617,12.3346286 C66.8173617,12.4004571 66.8146383,12.4669714 66.8119149,12.5369143 L66.8119149,12.5382857 C67.9012766,12.3188571 69.0723404,12.0870857 69.8321702,12.1913143 C69.1036596,11.1517714 68.5569362,9.72548571 68.5569362,7.74857143 C68.5569362,2.73531429 73.5142128,0.473142857 74.2828936,0.473142857 C74.6274043,0.473142857 74.7084255,0.554742857 74.7084255,0.759085714 C74.7084255,1.20754286 74.0609362,1.656 74.0609362,5.07908571 C74.0609362,7.44754286 74.3271489,9.47177143 74.5504681,11.184 L74.5504681,11.184 C76.5262979,9.11451429 78.6233191,7.68754286 79.9094468,7.68754286 C79.949617,7.68754286 79.9693617,7.76914286 79.9693617,7.85074286 C79.9693617,7.99337143 78.674383,8.60502857 78.6757447,10.5613714 C78.674383,12.0898286 79.6051064,13.4756571 80.8190638,13.4756571 C82.1950638,13.4756571 82.9855319,12.0075429 82.9855319,10.9275429 C82.9855319,10.7136 82.9589787,10.4660571 82.9085957,10.2130286 L82.907234,10.2116571 C80.9845106,10.1691429 80.3751489,9.43885714 80.3751489,8.74628571 C80.3751489,8.27725714 80.8408511,7.72731429 81.4468085,7.72731429 C82.1753191,7.72731429 83.1993191,8.28754286 83.5826383,9.54308571 C83.7154043,9.5424 83.8420426,9.54102857 83.9564255,9.54102857 C84.3724255,9.54102857 85.0988936,9.24205714 85.8702979,8.67017143 L85.8716596,8.66537143 C85.8532766,7.83085714 85.8382979,7.01828571 85.8382979,6.38194286 C85.8382979,3.46765714 86.8105532,0.818742857 88.4684255,0.818057143 C89.3181277,0.818057143 89.7634043,1.53188571 89.7634043,2.44868571 C89.7634043,4.4064 88.7938723,6.47382857 87.4001702,7.9824 L87.3933617,7.9968 C87.3797447,10.4866286 87.3028085,11.8436571 87.6595745,11.8436571 C88.0837447,11.8436571 89.4188936,7.50308571 91.1196596,7.50308571 C92.9000851,7.50308571 91.4430638,13.0457143 92.1913191,13.0457143 C93.1022979,13.0457143 95.1857021,7.4208 96.5821277,7.4208 C98.5252766,7.4208 97.1901277,12.1282286 97.8573617,12.1282286 C98.5450213,12.1282286 99.5765106,7.4208 101.377362,7.4208 C103.66434,7.4208 101.51966,13.4125714 102.694128,13.4125714 C103.584,13.4125714 105.849872,7.19657143 106.356426,7.19657143 C106.760851,7.19657143 106.154213,7.68548571 107.711319,9.92708571 C107.778043,10.0217143 107.837957,10.1177143 107.892426,10.2164571 L107.900596,10.2178286 C109.513532,8.72022857 111.66366,7.42011429 113.235745,7.42011429 C113.518979,7.42011429 113.681021,7.46125714 113.681021,7.66491429 C113.681021,8.13325714 112.284596,8.52068571 112.284596,10.8438857 C112.284596,12.2708571 113.256851,13.4317714 114.348255,13.4317714 C115.744681,13.4317714 116.473191,12.0253714 116.473191,10.9460571 C116.473191,10.6717714 116.416,10.3254857 116.309787,9.9792 L116.300255,9.9744 C116.004766,10.0587429 115.697702,10.1101714 115.379745,10.1101714 C114.186894,10.1101714 113.68034,9.25371429 113.68034,8.62285714 C113.68034,8.15382857 114.125617,7.70605714 114.712511,7.70605714 C115.522043,7.70605714 116.358809,8.17782857 116.826553,9.096 L116.830638,9.09668571 C118.094979,8.54605714 119.253787,7.48182857 120.034043,7.48182857 C121.956766,7.48182857 120.864,11.6804571 121.309277,11.6804571 C121.794723,11.6804571 123.27217,7.31931429 124.809532,7.31931429 C126.023489,7.31931429 125.922723,8.94925714 125.922723,9.68297143 C125.922723,11.3547429 125.538723,13.6162286 126.146043,13.6162286 C126.570213,13.6162286 127.643234,11.8429714 127.78417,11.8429714 C127.926468,11.8429714 127.946213,11.8848 127.946213,12.0678857 C127.946213,12.4134857 126.205277,15.0425143 125.254809,15.0425143 C123.878809,15.0425143 124.000681,12.9236571 124.000681,12.2516571 C124.000681,11.7216 124.161362,8.9904 123.757617,8.9904 C123.454638,8.9904 122.664851,10.7636571 121.93566,12.0685714 C121.188085,13.3933714 120.82383,14.88 120.075574,14.88 C119.083574,14.88 119.285787,13.4948571 119.285787,12.1508571 C119.285787,10.3570286 119.507745,8.62422857 118.942638,8.62422857 C118.680511,8.62422857 117.978553,9.24548571 117.056681,9.68502857 L117.055319,9.68777143 C117.148596,10.0196571 117.201702,10.392 117.201702,10.8048 C117.201702,11.9458286 116.615489,14.88 113.882553,14.88 C111.940766,14.88 110.422468,13.3515429 110.422468,11.3547429 C110.422468,9.49988571 111.454638,8.92937143 112.042213,8.27725714 C111.035234,8.44662857 109.386894,9.48 108.113021,10.6676571 L108.108936,10.68 C108.417362,11.4713143 108.43983,12.2605714 108.43983,12.5376 C108.43983,13.8624 107.609872,14.7798857 106.76017,14.7785143 C106.193702,14.7785143 105.627234,14.4130286 105.627234,13.6786286 C105.627234,13.1026286 106.03166,12.3312 106.673702,11.5268571 L106.673702,11.52 C106.348936,10.6354286 105.892085,9.99017143 105.646979,9.99017143 C105.141787,9.99017143 103.66434,14.7785143 101.802894,14.7785143 C99.7589787,14.7785143 101.175149,8.95062857 100.487489,8.95062857 C99.8202553,8.95062857 97.8573617,14.7785143 96.7244255,14.7785143 C95.1257872,14.7785143 96.562383,9.0528 95.853617,9.0528 C94.944,9.0528 92.8388085,14.7785143 91.4226383,14.7785143 C89.4202553,14.7785143 90.9160851,9.1344 90.0874894,9.1344 C89.6422128,9.1344 88.9130213,10.6628571 88.2260426,12.1913143 C87.6384681,13.4139429 87.2953191,14.6982857 86.6675745,14.6982857 C86.0813617,14.6982857 85.9588085,14.4733714 85.9588085,12.5780571 C85.9588085,11.9766857 85.92,10.6525714 85.8859574,9.28525714 L85.883234,9.28182857 C85.188766,9.73714286 84.4520851,10.0491429 83.712,10.1643429 L83.7092766,10.1684571 C83.7249362,10.3124571 83.7344681,10.464 83.7344681,10.6217143 C83.7344681,11.9869714 83.1877447,14.8601143 80.3955745,14.8601143 C78.290383,14.8601143 77.1377021,13.2500571 77.1377021,11.1922286 C77.1377021,10.0923429 77.664,9.35794286 78.1698723,8.74697143 C77.0648511,9.41622857 75.8025532,10.4475429 74.6246809,11.6969143 L74.6205957,11.7140571 C74.7492766,12.7282286 74.8520851,13.6251429 74.8520851,14.4130286 C74.8520851,20.424 72.2417021,23.3595429 70.8452766,23.3595429 C69.9744681,23.3595429 69.508766,22.1972571 69.508766,21.0157714 C69.5080851,18.9270857 70.5450213,16.5346286 72,14.3595429 L72,14.3595429 L72,14.3595429 L72,14.3595429 Z M106.854809,12.0898286 L106.849362,12.0898286 C106.504851,12.5904 106.295149,13.0704 106.295149,13.4756571 C106.295149,13.8829714 106.37617,14.1277714 106.619915,14.1277714 C106.841872,14.1277714 107.044085,13.8411429 107.044085,13.4544 C107.044085,12.9936 106.970553,12.5266286 106.854809,12.0898286 L106.854809,12.0898286 L106.854809,12.0898286 L106.854809,12.0898286 Z M87.3947234,7.16777143 L87.3947234,7.16777143 C88.251234,6.05348571 88.9130213,4.56754286 88.9130213,2.75588571 C88.9130213,1.89942857 88.8517447,1.41051429 88.4078298,1.41051429 C87.2674043,1.41051429 87.3817872,5.66537143 87.3947234,7.16777143 L87.3947234,7.16777143 L87.3947234,7.16777143 L87.3947234,7.16777143 Z M82.6954894,9.52731429 L82.6982128,9.52182857 C82.4817021,9.01028571 82.1412766,8.60434286 81.6701277,8.60434286 C81.4665532,8.60434286 81.3453617,8.72708571 81.3453617,8.8896 C81.3460426,9.34285714 81.9867234,9.48548571 82.6954894,9.52731429 L82.6954894,9.52731429 L82.6954894,9.52731429 L82.6954894,9.52731429 Z M73.188766,13.4022857 L73.1833191,13.4009143 C71.620766,15.4690286 70.4585532,17.8738286 70.4585532,20.1586286 C70.4585532,20.9142857 70.4585532,22.0347429 71.4907234,22.0347429 C72.7659574,22.0347429 73.6571915,20.1181714 73.6571915,17.4486857 C73.6571915,16.2082286 73.44,14.7977143 73.188766,13.4022857 L73.188766,13.4022857 L73.188766,13.4022857 L73.188766,13.4022857 Z M65.4107234,12.7981714 L65.4188936,12.7858286 C65.0662128,11.9211429 64.448,11.0907429 63.195234,11.0907429 C62.8514043,11.0907429 62.6689362,11.3965714 62.6689362,11.7634286 C62.6689362,12.4361143 63.7208511,12.8633143 64.6931064,12.8633143 C64.8946383,12.864 65.1397447,12.8386286 65.4107234,12.7981714 L65.4107234,12.7981714 L65.4107234,12.7981714 L65.4107234,12.7981714 Z M48.082383,9.35657143 C47.8937872,9.39702857 47.7031489,9.41965714 47.5131915,9.41965714 C46.9671489,9.41965714 46.6430638,9.19542857 46.6430638,8.82857143 C46.6430638,8.66537143 46.8255319,8.46171429 47.0277447,8.46171429 C47.4648511,8.46171429 47.8284255,8.84982857 48.0857872,9.34834286 L48.082383,9.35657143 L48.082383,9.35657143 L48.082383,9.35657143 L48.082383,9.35657143 Z M38.8874894,12.0966857 C39.0018723,12.5307429 39.0754043,12.9963429 39.0754043,13.4544 C39.0754043,13.8411429 38.8731915,14.1277714 38.6498723,14.1277714 C38.4074894,14.1277714 38.3264681,13.8829714 38.3264681,13.4756571 C38.3264681,13.0724571 38.5348085,12.5945143 38.8765957,12.096 L38.8874894,12.096 L38.8874894,12.0966857 L38.8874894,12.0966857 L38.8874894,12.0966857 Z M19.4260426,7.16091429 C19.4131064,5.65234286 19.300766,1.41051429 20.4391489,1.41051429 C20.8844255,1.41051429 20.9450213,1.89942857 20.9450213,2.75588571 C20.9450213,4.5648 20.2845957,6.04937143 19.4294468,7.16297143 L19.4260426,7.16091429 L19.4260426,7.16091429 L19.4260426,7.16091429 L19.4260426,7.16091429 Z M14.7295319,9.52731429 C14.0194043,9.4848 13.3766809,9.34354286 13.3766809,8.8896 C13.3766809,8.72708571 13.4985532,8.60434286 13.700766,8.60434286 C14.1732766,8.60434286 14.514383,9.01165714 14.7308936,9.52525714 L14.7295319,9.52731429 L14.7295319,9.52731429 L14.7295319,9.52731429 L14.7295319,9.52731429 Z M5.11659574,12.8715429 C4.84017021,13.2212571 4.57123404,13.5812571 4.31387234,13.9481143 L4.31182979,13.9481143 C3.05429787,12.7090286 2.0452766,10.0457143 2.04459574,7.86994286 C2.04459574,2.46994286 5.60612766,0.941485714 5.78859574,0.941485714 C6.05140426,0.941485714 5.97106383,1.00251429 5.97106383,1.36937143 C5.97106383,1.92 4.43302128,4.48731429 4.43302128,8.09485714 C4.43302128,9.36137143 4.78706383,11.0763429 5.1186383,12.8544 L5.11659574,12.8715429 L5.11659574,12.8715429 L5.11659574,12.8715429 L5.11659574,12.8715429 Z M5.21940426,13.3968 C5.472,14.7936 5.68782979,16.2054857 5.68782979,17.4493714 C5.68782979,20.1188571 4.7972766,22.0354286 3.5227234,22.0354286 C2.49055319,22.0354286 2.49055319,20.9142857 2.49055319,20.1606857 C2.49055319,17.8731429 3.65412766,15.4662857 5.2173617,13.3974857 L5.21940426,13.3974857 L5.21940426,13.3968 L5.21940426,13.3968 L5.21940426,13.3968 Z" transform="translate(0 52)"/>
  </g>
</svg>
