<svg xmlns="http://www.w3.org/2000/svg" width="128" height="23" viewBox="0 0 128 23">
  <g fill="none" fill-rule="evenodd" transform="translate(0 -52.688)">
    <rect width="128" height="128"/>
    <path fill="#4A4A4A" d="M53.8776811,54.4525432 C53.3748849,58.7448521 49.2113666,62.00435 45.9323349,64.3804792 C45.7001468,64.9168103 46.2413623,65.3012085 46.6272292,65.4913321 C51.2927083,65.8757303 52.3342142,60.7382435 56.1143714,59.1284201 C58.6609246,58.1321395 61.9382859,57.633169 64.3278197,59.2828436 C64.0964668,60.0865099 62.709184,60.0865099 63.0557958,61.0445997 L63.0557958,61.4298282 C60.1242112,66.8728411 56.4217284,74.8854278 48.9399236,75 C48.3243744,74.8845975 48.2082803,74.232864 48.2458647,73.6184909 C48.4396333,72.0858793 49.7500766,70.973366 51.1006101,70.2842719 C51.4088023,70.1672089 51.7955042,70.0916577 52.1412809,70.0916577 C52.3342142,70.973366 51.2167042,71.701481 52.0644416,72.3557053 C54.1858733,71.5495482 55.0352811,69.2116098 55.6884147,67.3709814 C54.1474537,67.8317612 51.9491827,69.4789451 50.3288768,67.8317612 C50.1751983,67.4490234 50.1359435,66.6818874 49.5963981,66.7582689 C48.0529314,67.9845242 46.2806172,69.1742493 44.1575153,68.6752788 C43.3473621,68.3689225 42.7309777,67.5627655 42.1145933,67.0264344 C40.1084207,68.292541 37.3714398,69.5204568 34.9802355,68.292541 C34.2861766,67.7927402 34.4406903,66.7582689 34.3254315,65.9927933 L34.1308277,65.9927933 C32.3192587,67.5627655 30.1218231,69.0571863 27.6145248,68.1381175 C26.4569248,66.6818874 27.57527,64.802238 28.1156503,63.3833684 C31.3930116,59.5119881 36.7926398,57.1341985 41.5349581,58.9756571 C41.4973737,60.4717384 39.8394833,61.350956 38.6818831,61.7361845 C38.027079,62.6195533 37.332185,63.6913852 37.7172164,64.88028 C38.8363968,66.1430656 40.5719618,65.1849758 41.7679814,64.6876657 C42.0369188,64.1139742 42.1914325,63.4232196 42.3843659,62.8096768 C44.0055072,58.9382965 47.4749666,54.5662853 51.8330886,53.6845769 C52.6424064,53.6837467 53.4525594,53.7601282 53.8776811,54.4525432 L53.8776811,54.4525432 L53.8776811,54.4525432 L53.8776811,54.4525432 L53.8776811,54.4525432 Z M59.0442857,61.4663585 C58.9281916,62.0417106 58.351062,62.3887483 58.0804542,62.8843979 C56.9629442,64.1123137 55.5355714,64.91598 53.8776811,64.91598 C53.4918144,64.5315818 53.4918144,63.9562298 53.6062379,63.5361314 C54.1850381,62.1172618 55.8437636,61.3111048 57.2711364,61.0429393 C57.8491012,61.006409 58.5423249,61.0437695 59.0442857,61.4663585 L59.0442857,61.4663585 L59.0442857,61.4663585 L59.0442857,61.4663585 L59.0442857,61.4663585 Z M45.9331701,62.1180921 C46.1252683,60.1238704 47.6687351,58.0922883 49.5579785,57.018796 C49.132857,58.9374663 47.7455744,60.8154552 45.9331701,62.1180921 L45.9331701,62.1180921 L45.9331701,62.1180921 L45.9331701,62.1180921 L45.9331701,62.1180921 Z M2.00533751,57.5567875 C2.00533751,57.5949782 2.00533751,57.7095505 1.92766304,57.7095505 L1.851659,57.7095505 L1.851659,57.5567875 L2.00533751,57.5567875 L2.00533751,57.5567875 L2.00533751,57.5567875 L2.00533751,57.5567875 L2.00533751,57.5567875 Z M94.8346741,60.7382435 C94.5264819,61.4298282 93.9084271,61.8881173 93.3304623,62.3887483 C92.7140779,62.8852281 91.9423445,63.1525634 91.2098658,63.3825382 C91.2474502,62.00435 93.0205997,61.0437695 94.1807053,60.4709082 C94.4087174,60.4709082 94.6016508,60.5854804 94.8346741,60.7382435 L94.8346741,60.7382435 L94.8346741,60.7382435 L94.8346741,60.7382435 L94.8346741,60.7382435 Z M36.3307691,61.6199518 C35.1347492,63.0778424 33.4760237,64.0749532 31.8172979,64.610454 C31.3554272,64.6868355 30.7749568,64.6868355 30.5060194,64.3414582 C30.5060194,63.8416575 30.3907605,63.1152029 30.8150468,62.6942743 C32.280839,61.311935 34.5158592,60.6618619 36.3307691,61.6199518 L36.3307691,61.6199518 L36.3307691,61.6199518 L36.3307691,61.6199518 L36.3307691,61.6199518 Z M30.196992,53.6837467 C32.1655802,58.0922883 28.4238426,62.0417106 25.4154187,65.1841456 C22.483834,67.830931 18.9367003,69.4781149 14.8867704,68.7499998 C14.0766174,68.5216855 13.4978174,67.8682915 12.8029232,67.4091722 C10.7215817,68.5216855 7.98293041,69.6341988 5.63014583,68.2908805 C4.6663143,67.561105 4.32053766,66.4502521 4.16602396,65.3003783 C4.08834948,62.4626391 6.05443215,60.3538452 7.63631855,58.1313093 C5.05134579,58.2840723 2.2742749,57.1732195 0,58.5904286 C0.0384196275,57.21058 0.193768556,55.6389473 1.58105119,54.8336205 C5.16743989,52.8402291 9.06202082,55.6007566 12.8037584,54.2200778 L12.8037584,54.4102013 C10.2981306,57.4787455 7.52105967,60.736583 8.40721673,64.8777893 C8.67782453,65.3759296 9.10211087,65.9106002 9.75691494,66.1405749 C10.8368406,66.1795959 11.7622525,65.9106002 12.4563114,65.1077641 C12.4563114,60.7747737 14.92519,56.8643725 18.7805161,54.5256038 C19.8236925,54.0274635 21.0572967,53.5666837 22.3293203,53.9884425 C22.9072853,54.5256038 23.0993835,55.2155281 22.9849598,56.0208549 C21.9058692,59.2795226 19.7075984,62.1156014 16.9689472,64.6469843 C17.2003002,65.3360784 17.8559395,66.0268329 18.5508336,66.1795959 C22.6776028,66.6793967 25.0688068,62.2700249 26.4953444,59.2014807 C27.1518189,57.8224623 26.6114385,56.0590457 25.4930931,54.9855533 C26.5730189,53.7219375 28.6159407,52.037393 30.196992,53.6837467 L30.196992,53.6837467 L30.196992,53.6837467 L30.196992,53.6837467 L30.196992,53.6837467 Z M70.8449577,57.2869615 C70.8858831,57.8623135 70.730534,58.3994748 70.3847573,58.8204033 C72.0401423,59.0138478 73.7013734,57.402364 75.1663307,58.5912588 L75.0485662,59.2820134 C73.5067697,61.350956 70.8858831,62.5788718 71.0387264,65.2231666 C71.9649734,66.4510824 73.5443541,65.6449253 74.6635347,65.4531413 C75.6290366,61.8872871 79.2930997,59.1275899 82.7625591,58.5148773 C84.0738377,58.3994748 85.8094027,58.2458815 86.5034615,59.5493486 C86.7348145,60.8918367 85.8870771,62.1587735 84.8071516,63.0778424 C83.2636847,64.2650767 81.4512806,64.9168103 79.7942253,65.9122606 C80.6787119,66.7184177 81.991661,66.3356799 83.1108414,66.2576379 L86.2345242,65.3012085 C88.1237677,61.2363838 92.2112819,58.3222631 96.6470784,58.1703303 C97.2258784,58.2849025 97.8038432,58.5912588 98.1529609,59.2039714 C98.3442236,61.0836207 97.0713647,62.5788718 95.5671529,63.5369617 C94.1021956,64.4950515 92.4434701,64.9168103 90.9785129,65.9122606 C91.7878308,66.5656546 93.0205997,65.8749001 93.9084271,65.6075648 C98.074451,64.0749532 101.428652,60.9308577 105.170389,58.3222631 C105.671515,58.5148773 106.250315,58.5912588 106.519252,59.0902293 C106.365574,60.4709082 104.862197,61.428998 104.592424,62.6934441 C106.944374,61.3111048 108.871201,59.3583949 111.301661,58.2840723 C111.841206,58.1313093 112.383257,58.5522378 112.766618,58.8594243 C113.037226,59.7784932 111.842041,60.200252 111.455339,60.7374132 C110.337829,61.8499265 109.065805,63.1143727 108.949711,64.6860053 C109.297158,65.4905018 110.298574,65.1841456 110.954214,65.1841456 C114.618277,63.3825382 117.627536,60.2401032 120.751219,57.2869615 C121.173834,57.0569867 121.752634,56.9415842 122.369854,57.0569867 C123.372941,57.5559572 122.25543,58.3214328 122.25543,58.9748268 C121.870399,60.8918367 122.176921,63.0778424 121.752634,64.9168103 C123.525784,66.0293236 126.264435,65.7985186 128,64.8794497 C127.844651,66.4510824 126.611882,68.2518595 124.953156,68.7890208 C121.597286,69.2107796 118.088571,67.9455032 114.888049,68.9417838 C114.424508,68.9417838 113.886633,68.9417838 113.616026,68.406283 C113.537516,67.9828638 113.65361,67.4481932 114.038641,67.1401764 C114.888884,65.9919631 116.431516,66.0666841 117.627536,65.4539716 C117.702705,64.4958817 118.24392,63.5369617 117.66512,62.6942743 C114.19399,65.1102547 111.032723,68.6744485 106.713021,69.0962073 C105.862778,68.9808048 105.01504,68.6744485 104.630009,67.8317612 C104.592424,66.9110319 104.822107,65.9927933 105.131134,65.1849758 C104.977456,64.88028 104.746103,65.1849758 104.592424,65.2239968 C102.393318,66.9102017 100.233467,69.0962073 97.3018825,68.942614 C96.916851,68.6752788 97.2250432,68.214499 97.3018825,67.8691217 C97.803008,66.9882436 98.5739061,66.0675143 98.8829338,65.185806 C95.4886432,67.2564092 91.8262505,69.9031946 87.5850575,68.7906813 L86.0415908,67.4498537 C82.8786532,68.5607065 79.2930997,69.9405551 75.8595543,68.676109 C75.7451307,68.2543502 75.3960132,67.869952 75.0485662,67.6789982 C73.8542167,67.5262352 72.9672245,68.3697527 71.887299,68.676109 C70.4615966,68.7524905 68.686777,69.4806056 67.4531729,68.4087737 C66.8351179,67.6789982 66.7566082,66.4901034 67.027216,65.5710345 C67.5300122,64.3821397 68.3777495,63.5004314 69.2246517,62.4269391 C67.1057257,62.1205828 66.4500864,64.4975422 65.0619686,65.5710345 C63.826694,66.2601286 62.8236077,67.3726419 61.4354899,67.5262352 C62.8236077,64.6121145 66.8351179,62.8868886 67.1057257,59.5136486 C67.9526281,58.3239235 69.1085577,57.1358589 70.6144399,57.0212866 L70.8449577,57.2869615 L70.8449577,57.2869615 L70.8449577,57.2869615 L70.8449577,57.2869615 L70.8449577,57.2869615 Z M19.3601514,57.5949782 C19.0519591,59.3583949 18.0104532,60.9308577 16.5446609,62.1180921 C16.5446609,60.3156545 17.2779746,58.4384958 18.9751199,57.2877917 C19.2440573,57.1740497 19.2833121,57.441385 19.3601514,57.5949782 L19.3601514,57.5949782 L19.3601514,57.5949782 L19.3601514,57.5949782 L19.3601514,57.5949782 Z M82.7633943,60.8154552 C82.3015236,62.4244484 80.603543,62.9607794 79.2939349,63.5743222 C79.4083586,62.1587735 80.9509901,61.1990232 82.1845943,60.7382435 L82.7633943,60.8154552 L82.7633943,60.8154552 L82.7633943,60.8154552 L82.7633943,60.8154552 L82.7633943,60.8154552 Z"/>
  </g>
</svg>
