<svg xmlns="http://www.w3.org/2000/svg" width="127" height="28" viewBox="0 0 127 28">
  <g fill="none" fill-rule="evenodd" transform="translate(0 -50)">
    <rect width="128" height="128"/>
    <g fill="#4A4A4A" transform="translate(0 50)">
      <path d="M4.72247899,23.6046512 C5.12268908,23.6046512 5.52289916,23.1976744 5.52289916,22.7906977 L5.52289916,17.3372093 L9.44495798,17.3372093 L9.44495798,22.9534884 C9.44495798,25.7209302 7.44390756,27.9186047 4.72247899,27.9186047 C2.00105042,27.9186047 -9.09494702e-13,25.6395349 -9.09494702e-13,22.9534884 L-9.09494702e-13,5.04651163 C-9.09494702e-13,2.27906977 2.00105042,0.0813953488 4.72247899,0.0813953488 C7.44390756,0.0813953488 9.44495798,2.36046512 9.44495798,5.04651163 L9.44495798,10.5813953 L5.52289916,10.5813953 L5.52289916,5.12790698 C5.52289916,4.72093023 5.12268908,4.31395349 4.72247899,4.31395349 C4.32226891,4.31395349 3.92205882,4.72093023 3.92205882,5.12790698 L3.92205882,22.7906977 C3.92205882,23.2790698 4.32226891,23.6046512 4.72247899,23.6046512 L4.72247899,23.6046512 L4.72247899,23.6046512 L4.72247899,23.6046512 Z"/>
      <polygon points="16.649 .407 20.731 .407 20.731 27.593 16.649 27.593 16.649 16.279 15.048 16.279 15.048 27.593 10.966 27.593 10.966 .407 15.048 .407 15.048 12.128 16.649 12.128"/>
      <polygon points="22.572 27.593 22.572 .407 26.654 .407 26.654 27.593"/>
      <path d="M33.217437 23.6046512C33.6176471 23.6046512 34.0178571 23.1976744 34.0178571 22.7906977L34.0178571 17.3372093 37.939916 17.3372093 37.939916 22.9534884C37.939916 25.7209302 35.9388655 27.9186047 33.217437 27.9186047 30.4960084 27.9186047 28.494958 25.6395349 28.494958 22.9534884L28.494958 5.04651163C28.494958 2.27906977 30.4960084.0813953488 33.217437.0813953488 35.9388655.0813953488 37.939916 2.36046512 37.939916 5.04651163L37.939916 10.5813953 34.0178571 10.5813953 34.0178571 5.12790698C34.0178571 4.72093023 33.6176471 4.31395349 33.217437 4.31395349 32.8172269 4.31395349 32.4170168 4.72093023 32.4170168 5.12790698L32.4170168 22.7906977C32.4170168 23.2790698 32.7371849 23.6046512 33.217437 23.6046512L33.217437 23.6046512 33.217437 23.6046512 33.217437 23.6046512zM42.3422269 27.5930233L38.5802521 27.5930233 41.3016807.406976744 46.1842437.406976744 48.9857143 27.5930233 44.7434874 27.5930233 44.5033613 23.0348837 42.662395 23.0348837 42.3422269 27.5930233 42.3422269 27.5930233 42.3422269 27.5930233 42.3422269 27.5930233zM43.7829832 9.60465116L42.982563 18.8837209 44.2632353 18.8837209 43.7829832 9.60465116 43.7829832 9.60465116 43.7829832 9.60465116 43.7829832 9.60465116zM59.4712185 27.5930233L57.069958 27.5930233 56.7497899 27.0232558C56.1094538 27.5930233 55.1489496 27.9186047 54.1084034 27.9186047 51.4670168 27.9186047 49.8661765 25.9651163 49.8661765 22.9534884L49.8661765 5.04651163C49.8661765 2.27906977 51.8672269.0813953488 54.5886555.0813953488 57.310084.0813953488 59.3111345 2.36046512 59.3111345 5.04651163L59.3111345 10.9883721 55.3890756 10.9883721 55.3890756 5.20930233C55.3890756 4.80232558 54.9888655 4.39534884 54.5886555 4.39534884 54.1884454 4.39534884 53.7882353 4.80232558 53.7882353 5.20930233L53.7882353 23.1976744C53.7882353 23.6046512 54.1884454 24.0116279 54.5886555 24.0116279 54.9888655 24.0116279 55.3890756 23.6046512 55.3890756 23.1976744L55.3890756 17.9069767 54.5886555 17.9069767 54.5886555 14.3255814 59.4712185 14.3255814 59.4712185 27.5930233 59.4712185 27.5930233 59.4712185 27.5930233 59.4712185 27.5930233zM65.7945378 27.9186047C63.0731092 27.9186047 60.9119748 25.6395349 60.9119748 22.9534884L60.9119748 5.04651163C60.9119748 2.27906977 63.1531513.0813953488 65.7945378.0813953488 68.4359244.0813953488 70.6771008 2.36046512 70.6771008 5.04651163L70.6771008 22.9534884C70.7571429 25.6395349 68.5159664 27.9186047 65.7945378 27.9186047L65.7945378 27.9186047 65.7945378 27.9186047 65.7945378 27.9186047zM65.7945378 4.39534884C65.3943277 4.39534884 64.9941176 4.80232558 64.9941176 5.20930233L64.9941176 22.872093C64.9941176 23.2790698 65.3943277 23.6860465 65.7945378 23.6860465 66.1947479 23.6860465 66.594958 23.2790698 66.594958 22.872093L66.594958 5.20930233C66.594958 4.72093023 66.2747899 4.39534884 65.7945378 4.39534884L65.7945378 4.39534884 65.7945378 4.39534884 65.7945378 4.39534884zM79.4016807.406976744C81.4027311.406976744 83.8039916 1.54651163 83.8039916 5.04651163L83.8039916 10.9883721C83.8039916 12.2906977 83.0836134 13.1046512 82.0430672 13.8372093 83.0836134 14.5697674 83.8039916 15.3837209 83.8039916 16.6860465L83.8039916 22.9534884C83.8039916 26.4534884 81.4027311 27.5930233 79.4016807 27.5930233L74.3590336 27.5930233 74.3590336.406976744 79.4016807.406976744 79.4016807.406976744 79.4016807.406976744 79.4016807.406976744zM79.0815126 11.8023256C79.4817227 11.8023256 79.8018908 11.4767442 79.8018908 10.744186L79.8018908 5.69767442C79.8018908 4.88372093 79.5617647 4.63953488 79.0815126 4.63953488L78.4411765 4.63953488 78.4411765 11.8837209 79.0815126 11.8837209 79.0815126 11.8023256 79.0815126 11.8023256 79.0815126 11.8023256zM79.0815126 23.4418605C79.4817227 23.4418605 79.8018908 23.1162791 79.8018908 22.3837209L79.8018908 17.0116279C79.8018908 16.1976744 79.5617647 15.9534884 79.0815126 15.9534884L78.4411765 15.9534884 78.4411765 23.5232558 79.0815126 23.5232558 79.0815126 23.4418605 79.0815126 23.4418605 79.0815126 23.4418605zM90.367437 27.9186047C87.6460084 27.9186047 85.4848739 25.6395349 85.4848739 22.9534884L85.4848739 5.04651163C85.4848739 2.27906977 87.7260504.0813953488 90.367437.0813953488 93.0888655.0813953488 95.25 2.36046512 95.25 5.04651163L95.25 22.9534884C95.25 25.6395349 93.0888655 27.9186047 90.367437 27.9186047L90.367437 27.9186047 90.367437 27.9186047 90.367437 27.9186047zM90.367437 4.39534884C89.9672269 4.39534884 89.5670168 4.80232558 89.5670168 5.20930233L89.5670168 22.872093C89.5670168 23.2790698 89.9672269 23.6860465 90.367437 23.6860465 90.7676471 23.6860465 91.1678571 23.2790698 91.1678571 22.872093L91.1678571 5.20930233C91.1678571 4.72093023 90.7676471 4.39534884 90.367437 4.39534884L90.367437 4.39534884 90.367437 4.39534884 90.367437 4.39534884zM101.893487 27.9186047C99.1720588 27.9186047 97.0109244 25.6395349 97.0109244 22.9534884L97.0109244 5.04651163C97.0109244 2.27906977 99.2521008.0813953488 101.893487.0813953488 104.534874.0813953488 106.77605 2.36046512 106.77605 5.04651163L106.77605 22.9534884C106.77605 25.6395349 104.534874 27.9186047 101.893487 27.9186047L101.893487 27.9186047 101.893487 27.9186047 101.893487 27.9186047zM101.893487 4.39534884C101.493277 4.39534884 101.093067 4.80232558 101.093067 5.20930233L101.093067 22.872093C101.093067 23.2790698 101.493277 23.6860465 101.893487 23.6860465 102.293697 23.6860465 102.693908 23.2790698 102.693908 22.872093L102.693908 5.20930233C102.693908 4.72093023 102.293697 4.39534884 101.893487 4.39534884L101.893487 4.39534884 101.893487 4.39534884 101.893487 4.39534884z"/>
      <polygon points="107.096 4.558 107.096 .407 116.541 .407 116.541 4.558 113.98 4.558 113.98 27.593 109.818 27.593 109.818 4.558"/>
      <polygon points="122.784 .407 126.867 .407 126.867 27.593 122.784 27.593 122.784 16.279 121.184 16.279 121.184 27.593 117.101 27.593 117.101 .407 121.184 .407 121.184 12.128 122.784 12.128"/>
    </g>
  </g>
</svg>
