<svg xmlns="http://www.w3.org/2000/svg" width="73" height="29" viewBox="0 0 73 29">
  <g fill="none" fill-rule="evenodd" transform="translate(-28 -49.938)">
    <rect width="128" height="128"/>
    <g fill="#4A4A4A" transform="translate(28 50)">
      <polygon points="6.085 27.953 9.62 17.301 .782 11.004 .081 13.195 6.982 18.133 3.728 27.953"/>
      <polygon points="11.921 10.31 15.259 .046 12.902 .046 10.293 8.091 1.764 8.063 1.035 10.282"/>
      <path d="M34.2807283,11.3367007 C35.9641749,10.2268759 37.0862129,8.34082856 37.0862129,6.1766509 C37.0862129,2.79247488 34.2807283,0.045841428 30.8577332,0.045841428 L30.8577332,0.045841428 L16.0168327,0.045841428 L19.3552853,10.3096986 L31.4752437,10.2819626 L21.6558528,17.300709 L25.1906621,27.9809913 L33.0741478,27.9809913 C37.7594357,27.9809913 41.5467035,24.235477 41.5467035,19.6031815 C41.5470932,15.3869257 38.3769462,11.8914205 34.2807283,11.3367007 L34.2807283,11.3367007 L34.2807283,11.3367007 L34.2807283,11.3367007 L34.2807283,11.3367007 L34.2807283,11.3367007 Z"/>
      <polygon points="15.624 21.628 6.842 27.953 10.63 27.953 15.624 24.347 20.646 27.953 24.433 27.981"/>
      <path d="M36.6093468,0.0739626401 C36.6934996,0.15717061 36.7772629,0.21264259 36.8337544,0.29585056 C38.4330481,1.87718721 39.3030171,3.95777168 39.3030171,6.17703611 C39.3030171,6.70401993 39.2465256,7.20365297 39.1623727,7.70290079 L39.1623727,7.70290079 L57.8758628,7.70290079 L64.7495144,27.9536405 L68.283934,27.9536405 L68.283934,7.70290079 L72.9696115,7.70290079 L72.9696115,0.0739626401 L36.6093468,0.0739626401 L36.6093468,0.0739626401 L36.6093468,0.0739626401 L36.6093468,0.0739626401 L36.6093468,0.0739626401 Z"/>
      <path d="M41.1263289 12.6402922C42.6130293 14.3606941 43.5391002 16.4686293 43.7354569 18.7156297L43.7354569 18.7156297 59.2499698 18.7156297 56.2761795 9.894044 38.4330481 9.894044C38.3485056 10.0608452 38.2647424 10.1991399 38.1805895 10.3378198 39.3030171 10.9206609 40.2844108 11.6972686 41.1263289 12.6402922L41.1263289 12.6402922 41.1263289 12.6402922 41.1263289 12.6402922 41.1263289 12.6402922 41.1263289 12.6402922zM60.007735 20.9071582L43.6789654 20.9071582C43.3988455 23.2373665 42.3329094 25.401159 40.6214118 27.0934396 40.3124617 27.3981503 39.97624 27.7036314 39.6392389 27.9532553L39.6392389 27.9532553 62.3924553 27.9532553 60.007735 20.9071582 60.007735 20.9071582 60.007735 20.9071582 60.007735 20.9071582 60.007735 20.9071582z"/>
    </g>
  </g>
</svg>
