<svg xmlns="http://www.w3.org/2000/svg" width="78" height="28" viewBox="0 0 78 28">
  <g fill="none" fill-rule="evenodd" transform="translate(-25 -50)">
    <rect width="128" height="128"/>
    <path fill="#4A4A4A" d="M25.0003962,70.0703873 C24.9813902,72.143857 25.6450597,73.95398 27.236942,75.3250215 C29.5279375,77.2996079 32.052142,77.9958879 34.5640183,77.9999867 C38.2347479,78.0051102 41.8797936,76.528013 44.7337781,75.3890649 C49.5402456,73.4718612 102.671308,50.4587566 102.671308,50.4587566 C103.183957,50.202583 103.087899,49.8833906 102.446318,50.0427306 C102.187425,50.1072864 44.6048454,65.6718856 44.6048454,65.6718856 C43.4932504,65.9828804 42.358026,66.1442698 41.2536224,66.1504179 C36.8283026,66.1765476 32.8904614,63.7265028 32.9223094,58.5635789 C32.9346376,56.5433934 33.5546447,54.1071819 34.9913968,51.2416233 C29.915763,57.1869016 25.0491954,64.5595795 25.0003962,70.0703873 L25.0003962,70.0703873 L25.0003962,70.0703873 Z"/>
  </g>
</svg>
