<svg xmlns="http://www.w3.org/2000/svg" width="46" height="35" viewBox="0 0 46 35" xmlns:xlink="http://www.w3.org/1999/xlink">
  <defs>
    <polygon id="a" points="23.001 .088 .007 .088 .007 34.623 45.996 34.623 45.996 .088"/>
    <polygon id="c" points="23.001 .088 .007 .088 .007 34.623 45.996 34.623 45.996 .088"/>
  </defs>
  <g fill="none" fill-rule="evenodd" transform="translate(-41 -46.125)">
    <rect width="128" height="128"/>
    <g transform="translate(41 46)">
      <polyline fill="#4A4A4A" points=".031 25.622 .031 27.723 2.543 27.723 2.543 34.623 4.953 34.623 4.953 27.723 7.452 27.723 7.452 25.622 .031 25.622"/>
      <path fill="#4A4A4A" d="M16.3371479 26.7772311C15.9086216 26.3694508 15.3923609 26.0473684 14.8027769 25.8191076 14.213193 25.5911899 13.5674637 25.4756293 12.8836892 25.4756293 12.1911529 25.4756293 11.5432331 25.5911899 10.9579148 25.8193364 10.3730576 26.0471396 9.85702757 26.3693364 9.4241203 26.7770023 8.99098246 27.1847826 8.64823058 27.6797483 8.40485714 28.2480549 8.161599 28.8168192 8.0382406 29.4496568 8.0382406 30.1291762 8.0382406 30.8086957 8.161599 31.4416476 8.40485714 32.0099542 8.64823058 32.5787185 8.99086717 33.0736842 9.4241203 33.4812357 9.85633584 33.8885584 10.3724812 34.2107551 10.9579148 34.4389016 11.5432331 34.6670481 12.1911529 34.7826087 12.8836892 34.7826087 13.5674637 34.7826087 14.213193 34.6670481 14.8027769 34.439016 15.3930526 34.2106407 15.909198 33.8883295 16.3371479 33.4811213 16.7655589 33.0732265 17.106005 32.5783753 17.3491479 32.0099542 17.5927519 31.4416476 17.715995 30.8090389 17.715995 30.1291762 17.715995 29.4496568 17.5927519 28.8168192 17.3491479 28.2480549 17.106005 27.6799771 16.7655589 27.1851259 16.3371479 26.7772311M13.8644461 32.4599542C13.5720752 32.5899314 13.2418897 32.6558352 12.8836892 32.6558352 12.516381 32.6558352 12.1820451 32.5899314 11.8896742 32.4599542 11.5967268 32.3295195 11.3445915 32.1495423 11.140416 31.924714 10.9350877 31.6990847 10.7731078 31.4304348 10.6596642 31.1263158 10.54599 30.821968 10.4882306 30.4866133 10.4882306 30.1291762 10.4882306 29.7718535 10.54599 29.4363844 10.6596642 29.1319222 10.7731078 28.8281465 10.9350877 28.5594966 11.140416 28.3336384 11.3452832 28.1084668 11.5974185 27.9282609 11.8896742 27.7985126 12.1820451 27.6683066 12.516381 27.6025172 12.8836892 27.6025172 13.2418897 27.6025172 13.5720752 27.6683066 13.8644461 27.7985126 14.1564712 27.9281465 14.4086065 28.1084668 14.6137043 28.3336384 14.8191479 28.559611 14.9806667 28.8281465 15.0944561 29.1319222 15.2083609 29.4369565 15.2661203 29.7723112 15.2661203 30.1291762 15.2661203 30.4860412 15.2083609 30.8213959 15.0944561 31.1263158 14.9806667 31.4304348 14.8191479 31.6988558 14.6137043 31.924714 14.4090677 32.1495423 14.1570476 32.3295195 13.8644461 32.4599542M26.4340902 26.8226545C26.00199 26.437643 25.4819248 26.1381007 24.8881905 25.9319222 24.2953784 25.7265446 23.635584 25.6223112 22.9270226 25.6223112L19.1218195 25.6223112 19.1218195 34.6224256 22.940396 34.6224256C23.6405414 34.6224256 24.2959549 34.5183066 24.8881905 34.3129291 25.4819248 34.1069794 26.0021053 33.8051487 26.4343208 33.4152174 26.8667669 33.025286 27.2092882 32.5481693 27.4523158 31.9973684 27.6955739 31.4461098 27.818817 30.8129291 27.818817 30.1156751 27.818817 29.4187643 27.6955739 28.7854691 27.4523158 28.2342105 27.2092882 27.6837529 26.8667669 27.2085812 26.4340902 26.8226545M25.3687118 30.1156751C25.3687118 30.4374142 25.3133734 30.7482838 25.2039649 31.0394737 25.0946717 31.3299771 24.9354586 31.5871854 24.7305915 31.8038902 24.5257243 32.0203661 24.2689774 32.1961098 23.9678446 32.326087 23.6668271 32.4562929 23.3185414 32.5223112 22.932787 32.5223112L21.5314586 32.5223112 21.5314586 27.72254 22.9462757 27.72254C23.3496692 27.72254 23.7071779 27.7843249 24.0091178 27.9057208 24.3096742 28.0271167 24.5636541 28.1980549 24.7639098 28.4138444 24.964396 28.630778 25.116807 28.8855835 25.2171078 29.1709382 25.3178697 29.4581236 25.3687118 29.7763158 25.3687118 30.1156751M34.3324862 25.6223112L31.3623158 25.6223112 27.9780301 34.5560641 27.952782 34.6224256 30.6794637 34.6224256 31.1228622 33.3413043 34.5855439 33.3413043 35.0288271 34.6224256 37.7555088 34.6224256 34.3447068 25.6542334 34.3324862 25.6223112 34.3324862 25.6223112 34.3324862 25.6223112zM33.9203308 31.2410755L31.7744712 31.2410755 32.8474586 28.0934783 33.9203308 31.2410755 33.9203308 31.2410755 33.9203308 31.2410755z"/>
      <mask id="b" fill="white">
        <use xlink:href="#a"/>
      </mask>
      <polyline fill="#4A4A4A" points="43.258 25.622 41.365 28.857 39.445 25.622 36.721 25.622 40.16 30.997 40.16 34.623 42.57 34.623 42.57 30.997 45.996 25.622 43.258 25.622" mask="url(#b)"/>
      <g>
        <mask id="d" fill="white">
          <use xlink:href="#c"/>
        </mask>
        <path fill="#4A4A4A" d="M5.9418396,21.5672769 C6.52980952,12.858238 13.8507268,5.95125858 22.7644662,5.95125858 C31.711985,5.95125858 39.055614,12.9113272 39.5945865,21.6686499 C39.6160301,22.0104119 39.627213,22.3548055 39.627213,22.7024027 L45.5282406,22.7024027 C45.5282406,22.3916476 45.5222456,22.0820366 45.5093333,21.7745995 C45.020396,9.71533181 35.0241003,0.0883295195 22.7644662,0.0883295195 C10.5883008,0.0883295195 0.643654135,9.58615561 0.0302055138,21.5305492 C0.00979949875,21.9184211 0,22.3089245 0,22.7024027 L5.90218045,22.7024027 C5.90218045,22.320595 5.91532331,21.9423341 5.9418396,21.5672769" mask="url(#d)"/>
      </g>
      <path fill="#4A4A4A" d="M13.5524762,21.6356979 C14.0862607,17.0565217 18.0141303,13.4895881 22.7644662,13.4895881 C27.5398195,13.4895881 31.4839449,17.0933638 31.9845263,21.7060641 C32.0214185,22.0342105 32.0388271,22.3652174 32.0388271,22.7024027 L37.9399699,22.7024027 C37.9399699,22.3799771 37.9301704,22.060984 37.9105714,21.7437071 C37.4129875,13.8640732 30.8221905,7.62688787 22.7644662,7.62688787 C14.7182707,7.62688787 8.13635088,13.8464531 7.62101253,21.7085812 C7.59887719,22.0371854 7.58838596,22.3684211 7.58838596,22.7024027 L13.4905664,22.7024027 C13.4905664,22.3411899 13.511203,21.9858124 13.5524762,21.6356979"/>
      <path fill="#4A4A4A" d="M22.7644662,15.1646453 C19.0649825,15.1646453 15.9830977,17.7946224 15.3129273,21.275286 C15.2230025,21.7375286 15.1765414,22.2141876 15.1765414,22.7024027 L30.3525063,22.7024027 C30.3525063,22.3383295 30.3263358,21.9804348 30.2754937,21.6302059 C29.7519699,17.9744851 26.5897293,15.1646453 22.7644662,15.1646453"/>
    </g>
  </g>
</svg>
