<svg xmlns="http://www.w3.org/2000/svg" width="128" height="18" viewBox="0 0 128 18">
  <g fill="none" fill-rule="evenodd" transform="translate(0 -55)">
    <g fill="#4A4A4A" transform="translate(0 55)">
      <path d="M110.603386,1.55450893 L124.835581,1.55450893 L124.835581,8.01305357 L110.603386,8.01305357 L110.603386,1.55450893 L110.603386,1.55450893 Z M119.569668,9.56951786 L126.368426,9.56951786 L126.368426,0 L109.072463,0 L109.072463,17.5786607 L110.603386,17.5786607 L110.603386,9.56951786 L117.404067,9.56951786 L125.279856,17.5786607 L127.44738,17.5786607 L119.569668,9.56951786 L119.569668,9.56951786 L119.569668,9.56951786 Z"/>
      <polyline points="69.901 0 44.729 0 44.729 1.555 52.613 1.555 52.613 17.579 54.146 17.579 54.146 1.555 69.901 1.555 69.901 17.579 71.434 17.579 71.434 1.555 79.318 1.555 79.318 0 69.901 0"/>
      <polyline points="8.647 7.688 1.085 0 0 0 0 17.579 1.531 17.579 1.531 2.657 8.647 9.89 15.763 2.657 15.763 17.579 17.294 17.579 17.294 0 16.207 0 8.647 7.688"/>
      <path d="M31.0281078,8.01305357 L33.7322248,2.51654464 L36.430572,8.01305357 L31.0281078,8.01305357 L31.0281078,8.01305357 L31.0281078,8.01305357 Z M33.2571772,0 L24.6120805,17.5786607 L26.3237904,17.5786607 L30.2626465,9.56951786 L37.1979566,9.56951786 L41.1310428,17.5786607 L42.844676,17.5786607 L34.2072724,0 L33.2571772,0 L33.2571772,0 L33.2571772,0 Z"/>
      <polyline points="86.016 17.579 101.999 17.579 101.999 16.026 87.547 16.026 87.547 9.57 95.431 9.57 95.431 8.011 87.547 8.011 87.547 1.555 101.999 1.555 101.999 0 86.016 0 86.016 17.579"/>
    </g>
    <rect width="128" height="128"/>
  </g>
</svg>
