<svg xmlns="http://www.w3.org/2000/svg" width="370" height="49" viewBox="0 0 370 49">
  <g fill="#4A4A4A" fill-rule="evenodd" transform="translate(0 .438)">
    <path d="M1.586 47.868C.71 47.868 0 47.157 0 46.282L0 1.881C0 1.003.71.294 1.586.294L45.988.294C46.864.294 47.573 1.004 47.573 1.881L47.573 8.222C47.573 9.1 46.864 9.807 45.988 9.807L14.272 9.807C13.397 9.807 12.687 10.519 12.687 11.393L12.687 17.737C12.687 18.612 13.397 19.322 14.272 19.322L42.816 19.322C43.693 19.322 44.402 20.032 44.402 20.906L44.402 27.25C44.402 28.128 43.692 28.837 42.816 28.837L14.272 28.837C13.397 28.837 12.687 29.547 12.687 30.424L12.687 46.28C12.687 47.156 11.977 47.867 11.101 47.867 11.1 47.868 2.462 47.868 1.586 47.868M324.012.185C323.137.185 322.428.895 322.428 1.769L322.428 46.172C322.428 47.048 323.138 47.757 324.012 47.757L368.415 47.757C369.291 47.757 370 47.047 370 46.172L370 39.829C370 38.953 369.29 38.242 368.415 38.242L336.699 38.242C335.822 38.242 335.113 37.532 335.113 36.657 335.113 35.78 335.074 1.604 335.074 1.604 335.074 1.604 335.183.189 333.526.185L324.012.185M50.746 1.881C50.746 1.003 51.456.294 52.331.294L99.904.294C100.781.294 101.49 1.004 101.49 1.881L101.49 8.222C101.49 9.1 100.78 9.807 99.904 9.807L65.018 9.807C64.142 9.807 63.431 10.519 63.431 11.393L63.431 17.737C63.431 18.612 64.142 19.322 65.018 19.322L96.733 19.322C97.609 19.322 98.319 20.032 98.319 20.906L98.319 27.25C98.319 28.128 97.609 28.837 96.733 28.837L65.018 28.837C64.142 28.837 63.431 29.547 63.431 30.424L63.431 36.765C63.431 37.643 64.142 38.35 65.018 38.35L99.904 38.35C100.781 38.35 101.49 39.062 101.49 39.936L101.49 46.28C101.49 47.156 100.78 47.867 99.904 47.867L52.331 47.867C51.455 47.867 50.746 47.155 50.746 46.28 50.746 46.282 50.746 2.756 50.746 1.881M104.662 19.322C104.662 24.578 108.922 28.838 114.176 28.838L139.549 28.838C141.301 28.838 142.721 30.257 142.721 32.01L142.721 35.182C142.721 36.932 141.301 38.351 139.549 38.351L118.934 38.351C118.057 38.351 117.348 37.644 117.348 36.769 117.348 35.891 116.638 35.182 115.763 35.182L106.248 35.182C105.372 35.182 104.662 35.892 104.662 36.766L104.662 38.351C104.662 43.606 108.923 47.868 114.177 47.868L145.893 47.868C151.149 47.868 155.409 43.606 155.409 38.351L155.409 28.837C155.409 23.582 151.149 19.322 145.893 19.322L120.521 19.322C118.769 19.322 117.349 17.903 117.349 16.15L117.349 12.98C117.349 11.227 118.769 9.806 120.521 9.806L141.137 9.806C142.012 9.806 142.721 10.518 142.721 11.393 142.721 12.267 143.431 12.98 144.308 12.98L153.821 12.98C154.697 12.98 155.408 12.267 155.408 11.393L155.408 9.806C155.408 4.553 151.148.293 145.892.293L114.176.293C108.922.293 104.662 4.553 104.662 9.806L104.662 19.322M158.577 1.881C158.577 1.003 159.289.294 160.164.294L207.739.294C208.614.294 209.324 1.004 209.324 1.881L209.324 8.222C209.324 9.1 208.614 9.807 207.739 9.807L191.88 9.807C191.005 9.807 190.293 10.519 190.293 11.393L190.293 46.281C190.293 47.156 189.586 47.868 188.709 47.868L179.195 47.868C178.318 47.868 177.609 47.156 177.609 46.281L177.609 11.394C177.609 10.519 176.899 9.807 176.022 9.807L160.165 9.807C159.29 9.807 158.578 9.1 158.578 8.223L158.578 1.881 158.577 1.881M228.353 38.351L247.381 38.351C249.134 38.351 250.555 36.932 250.555 35.181L250.555 12.981C250.555 11.228 249.134 9.807 247.381 9.807L228.353 9.807C226.602 9.807 225.181 11.228 225.181 12.981L225.181 35.181C225.181 36.932 226.602 38.351 228.353 38.351L228.353 38.351 228.353 38.351zM222.011 47.868C216.756 47.868 212.494 43.606 212.494 38.351L212.494 9.807C212.494 4.553 216.756.293 222.011.293L253.727.293C258.98.293 263.241 4.553 263.241 9.807L263.241 38.351C263.241 43.606 258.98 47.868 253.727 47.868L222.011 47.868 222.011 47.868 222.011 47.868zM283.459 38.487L302.488 38.487C304.24 38.487 305.659 37.068 305.659 35.312L305.659 13.112C305.659 11.361 304.24 9.942 302.488 9.942L283.459 9.942C281.706 9.942 280.287 11.361 280.287 13.112L280.287 35.312C280.287 37.068 281.706 38.487 283.459 38.487L283.459 38.487 283.459 38.487zM277.118 48C271.86 48 267.602 43.742 267.602 38.487L267.602 9.942C267.602 4.687 271.86.427 277.118.427L308.831.427C314.087.427 318.347 4.687 318.347 9.942L318.347 38.487C318.347 43.742 314.087 48 308.831 48L277.118 48 277.118 48 277.118 48z"/>
  </g>
</svg>
