<svg xmlns="http://www.w3.org/2000/svg" width="120" height="24" viewBox="0 0 120 24">
  <g fill="none" fill-rule="evenodd" transform="translate(-4 -51.75)">
    <rect width="128" height="128"/>
    <g fill="#4A4A4A" transform="translate(4 52)">
      <polygon points="6.965 .841 11.259 10.064 15.554 .841 22.19 .841 11.259 23.41 .328 .841"/>
      <polygon points="37.234 22.821 41.368 13.598 46.329 22.821 52.737 22.821 41.368 .252 30.207 22.821"/>
      <polygon points="101.182 23.802 96.134 14.185 92.702 22.821 85.838 22.821 95.731 .252 101.182 11.046 106.432 .252 116.325 22.821 109.459 22.821 106.027 14.185"/>
      <polygon points="29.497 .841 23.548 .841 23.548 22.821 29.497 22.821"/>
      <path d="M76.8574194.251675676C82.8941935.251675676 87.8909677 5.35459459 87.8909677 11.6341622 87.8909677 18.3074595 82.8948387 23.4090811 76.8574194 23.4090811 70.1954839 23.4090811 65.1980645 18.3074595 65.1980645 11.6341622 65.1980645 5.35459459 70.1954839.251675676 76.8574194.251675676L76.8574194.251675676 76.8574194.251675676 76.8574194.251675676 76.8574194.251675676zM81.8535484 11.6348108C81.8535484 9.08367568 79.3548387 6.53189189 76.8574194 6.53189189 73.7335484 6.53189189 71.236129 9.08367568 71.236129 11.6348108 71.236129 14.5783784 73.7335484 17.1301622 76.8574194 17.1301622 79.3548387 17.1295135 81.8535484 14.5783784 81.8535484 11.6348108L81.8535484 11.6348108 81.8535484 11.6348108 81.8535484 11.6348108 81.8535484 11.6348108zM64.1922581 16.7370811L64.1922581 22.8207568C63.3767742 23.4097297 62.7670968 23.4097297 61.7477419 23.4097297 55.8412903 23.4097297 50.9535484 18.3081081 50.9535484 11.6348108 50.9535484 5.35459459 55.8412903.252324324 61.7477419.252324324 62.7670968.252324324 63.3767742.252324324 64.1922581.841297297L64.1922581.841297297 64.1922581 6.53254054 61.7477419 6.53254054C59.303871 6.53254054 56.86 9.08432432 56.86 11.6354595 56.86 14.579027 59.303871 17.1308108 61.7477419 17.1308108 62.7670968 17.1295135 63.3767742 17.1295135 64.1922581 16.7370811L64.1922581 16.7370811 64.1922581 16.7370811 64.1922581 16.7370811 64.1922581 16.7370811zM118.652903 20.411027C118.870968 20.411027 119.082581 20.4681081 119.290323 20.5796757 119.496774 20.6925405 119.659355 20.8521081 119.775484 21.0622703 119.891613 21.2711351 119.949677 21.4890811 119.949677 21.7161081 119.949677 21.9418378 119.892903 22.1571892 119.778065 22.3647568 119.664516 22.5723243 119.503226 22.7331892 119.298065 22.8486486 119.092903 22.9628108 118.877419 23.0198919 118.652903 23.0198919 118.428387 23.0198919 118.212903 22.9628108 118.007742 22.8486486 117.80129 22.7331892 117.64129 22.5723243 117.526452 22.3647568 117.411613 22.1571892 117.354839 21.9418378 117.354839 21.7161081 117.354839 21.4890811 117.411613 21.2711351 117.529032 21.0622703 117.645161 20.8521081 117.806452 20.6925405 118.015484 20.5796757 118.221935 20.4681081 118.434839 20.411027 118.652903 20.411027L118.652903 20.411027 118.652903 20.411027 118.652903 20.411027zM118.652903 20.6276757C118.470323 20.6276757 118.293548 20.6743784 118.12 20.7684324 117.947097 20.8624865 117.813548 20.9967568 117.715484 21.1712432 117.617419 21.3450811 117.569032 21.5273514 117.569032 21.7161081 117.569032 21.9048649 117.616774 22.0845405 117.712903 22.2570811 117.809032 22.4296216 117.941935 22.5638919 118.114839 22.6598919 118.286452 22.7558919 118.466452 22.8045405 118.652903 22.8045405 118.839355 22.8045405 119.019355 22.7565405 119.190968 22.6598919 119.363871 22.5638919 119.496129 22.4296216 119.591613 22.2570811 119.685806 22.0845405 119.734194 21.9048649 119.734194 21.7161081 119.734194 21.5273514 119.686452 21.3450811 119.589032 21.1712432 119.492258 20.9961081 119.357419 20.8618378 119.184516 20.7684324 119.010968 20.6743784 118.832903 20.6276757 118.652903 20.6276757L118.652903 20.6276757 118.652903 20.6276757 118.652903 20.6276757zM118.083226 22.4367568L118.083226 21.0343784 118.563226 21.0343784C118.727097 21.0343784 118.845806 21.0460541 118.91871 21.0726486 118.991613 21.0979459 119.050968 21.1446486 119.093548 21.2082162 119.137419 21.2730811 119.160645 21.3411892 119.160645 21.4144865 119.160645 21.5156757 119.122581 21.6058378 119.050968 21.6817297 118.978065 21.7576216 118.880645 21.8010811 118.76129 21.8095135 118.810323 21.8309189 118.850968 21.8549189 118.88 21.8828108 118.935484 21.9398919 119.004516 22.032 119.086452 22.163027L119.256774 22.4367568 118.980645 22.4367568 118.857419 22.2149189C118.760645 22.0423784 118.682581 21.9321081 118.621935 21.8892973 118.581935 21.8562162 118.52129 21.8412973 118.441935 21.8412973L118.309677 21.8412973 118.309677 22.4367568 118.083226 22.4367568 118.083226 22.4367568 118.083226 22.4367568 118.083226 22.4367568zM118.309032 21.6473514L118.582581 21.6473514C118.712258 21.6473514 118.801935 21.6272432 118.849677 21.5876757 118.896129 21.5494054 118.92129 21.4975135 118.92129 21.432 118.92129 21.3917838 118.909677 21.3535135 118.885806 21.3204324 118.863226 21.2886486 118.831613 21.2633514 118.791613 21.2484324 118.750323 21.2322162 118.675484 21.2244324 118.564516 21.2244324L118.309032 21.2244324 118.309032 21.6473514 118.309032 21.6473514 118.309032 21.6473514 118.309032 21.6473514z"/>
    </g>
  </g>
</svg>
