<svg xmlns="http://www.w3.org/2000/svg" width="36" height="29" viewBox="0 0 36 29">
  <g fill="none" fill-rule="evenodd" transform="translate(-55 -49.188)">
    <rect width="128" height="128"/>
    <g transform="translate(55.046 50.143)">
      <polyline fill="#4A4A4A" points="11.305 14.587 11.305 24.044 12.897 22.87 12.897 16.212 11.305 14.587"/>
      <polyline fill="#4A4A4A" points="14.713 16.807 16.767 16.324 17.61 15.633 17.61 14.394 14.713 16.807"/>
      <polyline fill="#4A4A4A" points="14.458 1.737 11.544 .37 14.171 3.361 15.174 2.364 14.458 1.737"/>
      <path fill="#4A4A4A" d="M28.8040179 8.31487812C28.6925595 8.49179042 28.5651786 8.71695153 28.5174107 8.79736621 28.5014881 8.81344915 28.3263393 9.24768843 28.1671131 9.44068366 28.0556548 9.58543009 27.9919643 9.84275707 27.960119 9.95533763 27.960119 9.9875035 27.9123512 10.116167 27.8486607 10.2448305 27.7849702 10.357411 27.6416667 10.6790698 27.6416667 10.6790698 27.6416667 10.6790698 27.2754464 11.2419725 27.2595238 11.2741384 27.211756 11.3545531 27.1321429 11.4832166 27.0366071 11.5957971 26.956994 11.7244606 26.7977679 11.9174559 26.7818452 11.9817876 26.7340774 12.2230317 26.622619 12.3677781 26.543006 12.4803586 26.5111607 12.5286075 26.4793155 12.5768563 26.4793155 12.5929392 26.3997024 13.0110955 26.208631 13.3649201 25.9857143 13.4775007 25.8901786 13.5257495 25.7946429 13.5418324 25.6991071 13.4935836 25.3806548 13.3649201 25.3010417 13.0915102 25.2214286 12.8181003 25.2214286 12.8181003 25.1418155 12.3677781 25.1258929 12.126534 25.1258929 11.9978706 25.1099702 11.8531241 25.1099702 11.7244606 25.0940476 11.5475483 25.0622024 11.3545531 25.0462798 11.1776408 25.0144345 10.9363967 24.950744 10.2930793 24.950744 10.2930793 24.9029762 9.69801065 24.871131 9.37635192 24.5208333 9.11902494 24.4252976 9.05469319 24.1546131 9.05469319 24.1227679 9.03861025 23.8998512 9.02252732 23.6450893 9.02252732 23.4858631 9.07077613 23.4380952 9.08685906 23.1833333 9.24768843 23.1355655 9.2798543 22.9763393 9.36026898 22.8011905 9.47284954 22.7375 9.58543009 22.6260417 9.82667414 22.610119 10.3895769 22.7375 11.0811432 22.7534226 11.1615579 22.944494 11.6922948 23.0241071 11.9335388 23.0241071 11.9335388 23.2470238 12.5929392 23.3107143 12.8341832 23.3584821 13.0110955 23.5177083 13.5096666 23.5177083 13.5096666 23.5973214 13.7509106 23.7087798 14.0886523 23.740625 14.2977305 23.7724702 14.5228916 23.8361607 14.7319697 23.8998512 14.9410479 23.9635417 15.1501261 24.0272321 15.3752872 24.075 15.6165312 24.075 15.6486971 24.202381 16.0507705 24.202381 16.0990193 24.2183036 16.1472681 24.2979167 16.4850098 24.3456845 16.6136733 24.3775298 16.7262539 24.4252976 16.8388344 24.4571429 16.935332 24.5526786 17.2730737 24.6641369 17.5304007 24.7915179 17.8198935 24.8870536 18.0450546 24.9825893 18.205884 25.0144345 18.2702157 25.285119 18.6562062 25.4921131 18.8492015 25.9857143 18.8492015 26.3519345 18.8492015 26.543006 18.8009526 26.6703869 18.6883721 26.8296131 18.5275427 26.9729167 18.3345475 27.0206845 18.2702157 27.1639881 18.0450546 27.291369 17.7555618 27.3391369 17.449986 27.3709821 17.2891566 27.3709821 17.1122443 27.3550595 16.9192491 27.3550595 16.7423368 27.3391369 16.5654245 27.3709821 16.3885122 27.3869048 16.2759316 27.4505952 15.8899412 27.5938988 15.5200336 27.6098214 15.5039507 27.7053571 15.2787896 27.7372024 15.1340431 27.7849702 14.924965 27.9123512 14.7480527 28.0238095 14.5711404 28.0715774 14.4907257 28.1193452 14.4263939 28.1511905 14.3620622 28.2308036 14.2012328 28.6129464 13.5739983 28.6607143 13.4935836 28.6925595 13.4453348 28.7244048 13.397086 28.75625 13.3488372L28.75625 24.011824 17.9766369 24.011824 17.9766369 13.397086 14.0596726 16.7745027 10.8751488 13.4453348 10.8751488 23.9957411.0318452381 23.9957411.0318452381.0321658728 10.7.0321658728 14.1233631 3.89207061 17.9766369.0321658728 28.7880952.0321658728 28.8040179 8.31487812 28.8040179 8.31487812 28.8040179 8.31487812zM25.3328869 5.50036425C25.3010417 5.32345195 25.1577381 5.21087139 25.078125 5.0822079 24.9188988 4.84096386 24.7119048 4.82488092 24.5526786 4.82488092 24.4252976 4.82488092 24.202381 4.77663211 24.1227679 4.80879798 23.9635417 4.85704679 23.740625 5.01787616 23.6291667 5.09829084 23.5813988 5.13045671 23.278869 5.33953488 23.2151786 5.4360325 23.1833333 5.48428131 23.0081845 5.74160829 22.8967262 5.85418885 22.7852679 5.95068647 22.5145833 6.04718409 22.3553571 6.1436817 22.2598214 6.15976464 22.06875 6.19193051 21.9891369 6.22409639 21.9095238 6.25626226 21.5910714 6.41709162 21.527381 6.4492575 21.4796131 6.46534043 21.2566964 6.52967218 21.193006 6.54575511 21.1452381 6.56183805 21.0019345 6.65833567 20.9860119 6.65833567 20.8745536 6.69050154 20.6675595 6.70658448 20.5561012 6.6744186 20.4924107 6.65833567 20.0465774 6.40100869 19.7122024 6.46534043 19.5529762 6.4975063 19.4255952 6.56183805 19.3619048 6.6261698 19.266369 6.65833567 19.1230655 6.72266741 19.0912202 6.8030821 19.059375 6.88349678 18.9797619 6.88349678 18.931994 6.96391146 18.8364583 7.12474082 18.7886905 7.36598487 18.7886905 7.41423368 18.7727679 7.57506304 18.8205357 7.70372653 18.8364583 7.84847296 18.9001488 8.23446344 18.7886905 8.37920986 18.5339286 8.50787335 18.4861607 8.54003923 18.2950893 8.68478565 18.2473214 8.70086859 18.183631 8.73303446 17.9129464 8.82953208 17.8333333 8.86169795 17.5785714 9.00644438 17.3397321 9.102942 17.2760417 9.15119081 17.0212798 9.39243486 16.6391369 9.60151303 16.6391369 9.60151303 16.511756 9.68192771 16.2888393 9.8105912 16.0022321 9.97142057 15.8270833 10.0679182 15.588244 10.2930793 15.5404762 10.3252452 15.4927083 10.357411 15.253869 10.4699916 15.1901786 10.5182404 15.1424107 10.5504063 14.9354167 10.7112356 14.8717262 10.7434015 14.7284226 10.8238162 14.5691964 10.872065 14.378125 10.9203138 14.0755952 11.0007285 13.7730655 11.0972261 13.581994 11.3063043 13.2794643 11.644046 13.1520833 12.1586999 13.3113095 12.5607733 13.4546131 12.9628467 13.8049107 13.1880078 13.9800595 13.2684225 14.250744 13.3810031 14.6965774 13.3488372 14.9035714 13.2040908 15.0309524 13.1075932 15.1105655 12.9467638 15.1583333 12.8181003 15.1901786 12.7698515 15.253869 12.6090221 15.38125 12.4964416 15.508631 12.3677781 15.6997024 12.0461194 15.7474702 11.9978706 15.8748512 11.8692071 16.0340774 11.7727094 16.2092262 11.6762118 16.5595238 11.4992995 16.7824405 11.2741384 16.9098214 11.1615579 16.9894345 11.0811432 17.053125 11.0007285 17.1486607 10.9524797 17.4989583 10.7594844 17.6900298 10.614738 17.8014881 10.5343233 17.8970238 10.4539087 18.183631 10.3252452 18.3269345 10.2448305 18.4861607 10.1644158 18.6613095 10.0035864 18.7409226 9.97142057 18.8364583 9.92317176 18.9956845 9.92317176 19.059375 9.97142057 19.1230655 10.0196694 19.266369 10.2287475 19.3619048 11.3223872 19.3619048 11.370636 19.3778274 11.8209583 19.3778274 11.88529 19.3778274 11.9978706 19.4255952 12.3677781 19.4255952 12.399944 19.4096726 12.6090221 19.4255952 12.8663491 19.4415179 13.1075932 19.4415179 13.1236761 19.4255952 13.3166713 19.4574405 13.5418324 19.4892857 13.6865789 19.4733631 14.0082376 19.4574405 14.1369011 19.4415179 14.2494816 19.4574405 14.3781451 19.4574405 14.4907257 19.4574405 14.7802185 19.4255952 15.0536285 19.4096726 15.1179602 19.4096726 15.166209 19.4096726 15.5039507 19.39375 15.6326142 19.39375 15.6647801 19.3459821 15.8416924 19.3300595 15.9060241 19.3141369 16.0507705 19.39375 16.4850098 19.3778274 16.5815074 19.3619048 16.7101709 19.3300595 16.8388344 19.2822917 16.9674979 19.2186012 17.2087419 19.1230655 17.4660689 19.1708333 17.7877277 19.186756 17.96464 19.2345238 18.1737181 19.2982143 18.3827963 19.2982143 18.3988792 19.3778274 18.6722892 19.39375 18.8009526 19.39375 18.8009526 19.4892857 19.1226114 19.521131 19.3156066 19.5529762 19.460353 19.521131 19.7015971 19.521131 19.7498459 19.521131 19.8624264 19.600744 20.2001681 19.600744 20.2484169 19.600744 20.2805828 19.5848214 20.5218268 19.600744 20.6022415 19.6325893 20.7952368 19.6962798 21.1329784 19.9032738 21.2616419 20.1580357 21.4224713 20.3809524 21.4063883 20.524256 21.4546372 20.8904762 21.5672177 21.3044643 21.502886 21.5433036 21.4063883 21.6229167 21.3742225 21.7184524 21.3098907 21.7662202 21.245559 21.8139881 21.1651443 21.9254464 21.1008126 21.9891369 21.0043149 22.06875 20.8756514 22.1802083 20.3931634 22.2598214 20.2001681 22.3394345 19.975007 22.2598214 19.5568507 22.196131 19.3799384 22.1802083 19.3316895 21.9891369 18.8652844 21.941369 18.7527038 21.8936012 18.6401233 21.861756 18.1898011 21.8458333 18.0933034 21.8299107 18.0289717 21.7502976 17.7233959 21.7502976 17.6751471 21.7502976 17.6268983 21.7662202 17.3695713 21.7502976 17.3052396 21.6866071 16.9192491 21.734375 16.5332586 21.7821429 16.1633511L21.7821429 15.7451947C21.7980655 15.5361166 21.8139881 15.2948725 21.8139881 15.0536285 21.8139881 14.8927991 21.8299107 14.7480527 21.8299107 14.6193892 21.8299107 14.5389745 21.7821429 14.3459793 21.8139881 14.1851499 21.8299107 14.1208182 21.7662202 13.8634912 21.7662202 13.8313253 21.7502976 13.6865789 21.8139881 13.0593444 21.7980655 12.898515 21.7980655 12.8341832 21.7184524 12.4803586 21.6866071 12.1586999 21.6866071 12.1586999 21.6706845 11.7566265 21.6706845 11.627963 21.6866071 11.4671337 21.6547619 11.0811432 21.6547619 10.7273186 21.6547619 10.614738 21.6229167 9.90708882 21.606994 9.82667414 21.5910714 9.68192771 21.5751488 9.42460073 21.606994 9.19943962 21.6547619 8.82953208 21.6229167 8.76520034 21.6706845 8.52395629 21.7184524 8.28271224 22.1165179 8.10579994 22.1483631 8.10579994 22.2438988 8.08971701 22.5623512 8.02538526 22.6419643 7.94497058 22.8330357 7.76805828 23.071875 7.70372653 23.1833333 7.67156066 23.3584821 7.62331185 23.4380952 7.47856542 23.5017857 7.46248249 23.5813988 7.41423368 23.8043155 7.26948725 23.8839286 7.23732138 23.947619 7.20515551 24.0431548 7.07649201 24.202381 7.04432614 24.281994 7.02824321 24.409375 6.93174559 24.536756 6.88349678 24.6322917 6.85133091 24.7755952 6.81916503 24.7915179 6.78699916 25.0462798 6.56183805 25.4443452 6.03110115 25.3328869 5.50036425L25.3328869 5.50036425 25.3328869 5.50036425 25.3328869 5.50036425zM29.2339286 7.78414122C29.297619 7.70372653 29.3613095 7.63939479 29.425 7.55898011 29.4886905 7.47856542 29.6160714 7.28557019 29.7275298 7.12474082 29.7912202 7.01216027 29.9982143 6.75483329 30.0619048 6.69050154 30.1255952 6.6261698 30.5714286 6.01501821 30.6510417 5.91852059 30.6828869 5.88635472 30.8739583 5.69335948 30.9854167 5.58077893 31.1446429 5.41994957 31.1924107 5.35561782 31.224256 5.33953488 31.3197917 5.21087139 31.4153274 5.09829084 31.5108631 4.98571028 31.6063988 4.87312973 31.7019345 4.74446624 31.7974702 4.63188568 31.8452381 4.58363687 31.9407738 4.39064164 31.972619 4.35847576 32.0681548 4.22981227 32.5458333 3.77949005 32.561756 3.76340712 32.7846726 3.57041188 33.0394345 3.39349958 33.3897321 3.36133371 33.7877976 3.32916783 34.2177083 3.40958252 34.4247024 3.55432894 34.7272321 3.76340712 34.981994 4.16548053 34.9979167 4.47105632 35.0138393 4.76054917 34.981994 4.88921266 34.9342262 5.17870552 34.902381 5.32345195 34.8227679 5.69335948 34.6953869 5.90243766 34.647619 5.99893528 34.440625 6.30451107 34.2813988 6.41709162 34.1380952 6.52967218 33.9151786 6.64225273 33.8196429 6.6744186 33.7400298 6.70658448 33.3260417 6.89957971 33.2145833 6.96391146 33.0235119 7.07649201 32.9120536 7.18907257 32.8005952 7.31773606 32.7528274 7.38206781 32.6891369 7.43031662 32.6254464 7.49464836 32.5936012 7.5107313 32.227381 7.67156066 32.1 7.97713645 32.0203869 8.17013169 31.6541667 8.55612216 31.5904762 8.66870272 31.4949405 8.82953208 31.3675595 9.08685906 31.2401786 9.21552256 31.1605655 9.29593724 31.0491071 9.4567666 30.9376488 9.64976184 30.8580357 9.79450827 30.7465774 9.95533763 30.6988095 10.0196694 30.555506 10.1644158 30.4758929 10.373494 30.4122024 10.5182404 30.3803571 10.5825721 30.1574405 10.9203138 30.0778274 11.1454749 30.0459821 11.2419725 29.8389881 11.5797142 29.8230655 11.644046 29.7752976 11.7566265 29.5205357 11.9978706 29.5046131 12.0461194 29.4727679 12.126534 29.4409226 12.2230317 29.3931548 12.3356122 29.3613095 12.4321098 29.2816964 12.6251051 29.2498512 12.6733539L29.2498512 24.0761558 31.0013393 22.8538526 31.0013393 10.2287475C31.0650298 10.116167 31.4949405 9.53718128 31.5267857 9.48893247 31.7019345 9.32810311 31.8452381 9.02252732 31.9407738 8.84561502 31.972619 8.78128327 32.2910714 8.34704399 32.4184524 8.17013169 32.4980655 8.05755113 32.561756 8.00930233 32.6095238 7.94497058 32.6254464 7.91280471 32.8642857 7.78414122 32.9279762 7.73589241 33.0075893 7.67156066 33.0553571 7.59114598 33.103125 7.52681423 33.1986607 7.43031662 33.2782738 7.34990193 33.4375 7.26948725 33.5489583 7.20515551 33.9311012 7.04432614 33.9947917 7.02824321 34.1221726 6.9799944 34.3928571 6.83524797 34.568006 6.69050154 34.7909226 6.51358924 35.0138393 6.11151583 35.0616071 6.03110115 35.1889881 5.7898571 35.2845238 5.41994957 35.3322917 5.21087139 35.3959821 4.9052956 35.3959821 4.69621743 35.3959821 4.35847576 35.3800595 3.94031942 35.0297619 3.44174839 34.647619 3.16833847 34.3769345 2.97534323 33.8514881 2.87884562 33.3738095 2.91101149 32.9120536 2.94317736 32.6732143 3.20050434 32.3866071 3.37741664 32.0522321 3.57041188 31.7815476 3.94031942 31.6700893 4.08506584 31.638244 4.13331465 31.5108631 4.31022695 31.4790179 4.34239283 31.4153274 4.43889045 31.096875 4.87312973 31.0172619 4.96962735L31.0172619 1.14188848 29.2657738.080414682 29.2339286 7.78414122"/>
      <polyline fill="#4A4A4A" points=".048 24.768 .971 24.768 1.274 26.28 1.274 26.28 1.576 24.768 2.484 24.768 2.484 27.325 1.879 27.325 1.879 25.684 1.879 25.684 1.513 27.325 1.035 27.325 .669 25.684 .669 25.684 .669 27.325 .048 27.325 .048 24.768"/>
      <path fill="#4A4A4A" d="M4.61755952 26.3438498C4.61755952 27.051499 4.29910714 27.3892407 3.66220238 27.3892407 3.02529762 27.3892407 2.70684524 27.051499 2.70684524 26.3438498L2.70684524 24.7677221 3.34375 24.7677221 3.34375 26.1669375C3.34375 26.4242645 3.34375 26.7620062 3.66220238 26.7620062 3.96473214 26.7620062 3.96473214 26.4403474 3.96473214 26.1669375L3.96473214 24.7677221 4.6016369 24.7677221 4.61755952 26.3438498M5.44553571 26.4725133C5.44553571 26.5368451 5.44553571 26.6011768 5.46145833 26.6333427 5.50922619 26.794172 5.65252976 26.8263379 5.7639881 26.8263379 5.87544643 26.8263379 6.03467262 26.7780891 6.03467262 26.5850939 6.03467262 26.4564304 5.9391369 26.4242645 5.58883929 26.295601 5.25446429 26.1830205 4.88824405 26.0704399 4.88824405 25.5557859 4.88824405 24.9607173 5.30223214 24.7033903 5.73214286 24.7033903 6.17797619 24.7033903 6.59196429 24.9124685 6.6078869 25.539703L6.00282738 25.539703C6.01875 25.4432054 5.98690476 25.3788736 5.92321429 25.3306248 5.87544643 25.282376 5.79583333 25.2662931 5.73214286 25.2662931 5.63660714 25.2662931 5.49330357 25.298459 5.49330357 25.4432054 5.50922619 25.6201177 5.79583333 25.6683665 6.0983631 25.7648641 6.38497024 25.8613617 6.6875 26.038274 6.6875 26.5046792 6.6875 27.1640796 6.19389881 27.3892407 5.71622024 27.3892407 5.47738095 27.3892407 4.80863095 27.2927431 4.79270833 26.4725133L5.44553571 26.4725133"/>
      <rect width=".637" height="2.557" x="6.894" y="24.768" fill="#4A4A4A"/>
      <path fill="#4A4A4A" d="M9.15550595,25.7166153 C9.13958333,25.6201177 9.09181548,25.3467078 8.82113095,25.3467078 C8.51860119,25.3467078 8.42306548,25.7005324 8.42306548,26.054357 C8.42306548,26.4081816 8.51860119,26.7620062 8.82113095,26.7620062 C9.04404762,26.7620062 9.12366071,26.5690109 9.15550595,26.3277669 L9.79241071,26.3277669 C9.79241071,26.8424208 9.45803571,27.3892407 8.83705357,27.3892407 C8.16830357,27.3892407 7.7702381,26.810255 7.7702381,26.038274 C7.7702381,25.2341272 8.18422619,24.7033903 8.83705357,24.7033903 C9.41026786,24.7033903 9.72872024,25.0732978 9.7764881,25.7166153 L9.15550595,25.7166153"/>
      <polyline fill="#4A4A4A" points="11.464 25.427 10.875 25.427 10.875 24.768 12.69 24.768 12.69 25.427 12.101 25.427 12.101 27.325 11.464 27.325 11.464 25.427"/>
      <polyline fill="#4A4A4A" points="12.881 24.768 14.601 24.768 14.601 25.427 13.518 25.427 13.518 25.749 14.506 25.749 14.506 26.36 13.518 26.36 13.518 26.666 14.633 26.666 14.633 27.325 12.881 27.325 12.881 24.768"/>
      <polyline fill="#4A4A4A" points="14.84 24.768 15.477 24.768 15.477 26.666 16.4 26.666 16.4 27.325 14.84 27.325 14.84 24.768"/>
      <polyline fill="#4A4A4A" points="16.56 24.768 18.279 24.768 18.279 25.427 17.196 25.427 17.196 25.749 18.184 25.749 18.184 26.36 17.196 26.36 17.196 26.666 18.311 26.666 18.311 27.325 16.56 27.325 16.56 24.768"/>
      <polyline fill="#4A4A4A" points="19.824 27.325 19.107 27.325 18.486 24.768 19.139 24.768 19.473 26.328 19.489 26.328 19.824 24.768 20.476 24.768 19.824 27.325"/>
      <rect width=".653" height="2.557" x="20.715" y="24.768" fill="#4A4A4A"/>
      <path fill="#4A4A4A" d="M22.2598214,26.4725133 C22.2598214,26.5368451 22.275744,26.6011768 22.275744,26.6333427 C22.3235119,26.794172 22.4668155,26.8263379 22.5782738,26.8263379 C22.6897321,26.8263379 22.8489583,26.7780891 22.8489583,26.5850939 C22.8489583,26.4564304 22.7534226,26.4242645 22.403125,26.295601 C22.06875,26.1830205 21.7025298,26.0704399 21.7025298,25.5557859 C21.7025298,24.9607173 22.1165179,24.7033903 22.5464286,24.7033903 C22.9922619,24.7033903 23.40625,24.9124685 23.4221726,25.539703 L22.8171131,25.539703 C22.8330357,25.4432054 22.7852679,25.3788736 22.7375,25.3306248 C22.6897321,25.282376 22.610119,25.2662931 22.5464286,25.2662931 C22.4508929,25.2662931 22.3075893,25.298459 22.3075893,25.4432054 C22.3235119,25.6201177 22.6260417,25.6683665 22.9126488,25.7648641 C23.199256,25.8613617 23.5017857,26.038274 23.5017857,26.5046792 C23.5017857,27.1640796 23.0081845,27.3892407 22.530506,27.3892407 C22.2916667,27.3892407 21.6229167,27.2927431 21.606994,26.4725133 L22.2598214,26.4725133"/>
      <rect width=".637" height="2.557" x="23.709" y="24.768" fill="#4A4A4A"/>
      <path fill="#4A4A4A" d="M25.619494,24.7033903 C26.2563988,24.7033903 26.6703869,25.2662931 26.6703869,26.038274 C26.6703869,26.8263379 26.2563988,27.3892407 25.619494,27.3892407 C24.9825893,27.3892407 24.5526786,26.8263379 24.5526786,26.038274 C24.5686012,25.2662931 24.9825893,24.7033903 25.619494,24.7033903 L25.619494,24.7033903 L25.619494,24.7033903 Z M25.619494,26.7459232 C25.7787202,26.7459232 26.0334821,26.6172597 26.0334821,26.038274 C26.0334821,25.4753713 25.7787202,25.3306248 25.619494,25.3306248 C25.4602679,25.3306248 25.205506,25.4592883 25.205506,26.038274 C25.205506,26.6172597 25.4602679,26.7459232 25.619494,26.7459232 L25.619494,26.7459232 L25.619494,26.7459232 Z"/>
      <polyline fill="#4A4A4A" points="26.925 24.768 27.578 24.768 28.183 26.135 28.199 26.135 28.199 24.768 28.804 24.768 28.804 27.325 28.183 27.325 27.53 25.926 27.53 25.926 27.53 27.325 26.925 27.325 26.925 24.768"/>
      <path fill="#4A4A4A" d="M29.8071429,24.7677221 C29.5364583,24.7677221 29.2816964,24.9607173 29.2816964,25.3145419 C29.2816964,25.6522836 29.5364583,25.8613617 29.8071429,25.8613617 C30.0778274,25.8613617 30.3325893,25.6683665 30.3325893,25.3145419 C30.3325893,24.9607173 30.0778274,24.7677221 29.8071429,24.7677221 L29.8071429,24.7677221 L29.8071429,24.7677221 Z M29.8071429,25.7326982 L29.8071429,25.7326982 C29.6001488,25.7326982 29.425,25.5557859 29.425,25.3145419 C29.425,25.0572149 29.6001488,24.8963855 29.8071429,24.8963855 C30.0141369,24.8963855 30.1733631,25.0572149 30.1733631,25.3145419 C30.1733631,25.5557859 29.9982143,25.7326982 29.8071429,25.7326982 L29.8071429,25.7326982 L29.8071429,25.7326982 Z"/>
    </g>
  </g>
</svg>
