<?xml version="1.0" encoding="UTF-8" standalone="no"?>
<svg xmlns="http://www.w3.org/2000/svg" height="52px" width="227px" version="1.1" xmlns:xlink="http://www.w3.org/1999/xlink" viewBox="0 0 227 52"><!-- Generator: Sketch 39.1 (31720) - http://www.bohemiancoding.com/sketch -->
 <title>Group 68 Copy</title>
 <desc>Created with Sketch.</desc>
 <defs>
  <filter id="filter-1" height="200%" width="200%" y="-50%" x="-50%" filterUnits="objectBoundingBox">
   <feOffset in="SourceAlpha" result="shadowOffsetOuter1" dx="0" dy="2"/>
   <feGaussianBlur stdDeviation="2" result="shadowBlurOuter1" in="shadowOffsetOuter1"/>
   <feColorMatrix type="matrix" values="0 0 0 0 0   0 0 0 0 0   0 0 0 0 0  0 0 0 0.1 0" result="shadowMatrixOuter1" in="shadowBlurOuter1"/>
   <feMerge>
    <feMergeNode in="shadowMatrixOuter1"/>
    <feMergeNode in="SourceGraphic"/>
   </feMerge>
  </filter>
 </defs>
 <g id="Home" fill-rule="evenodd" fill="none">
  <g id="Group-68-Copy" filter="url(#filter-1)" fill="#fff" transform="translate(4 2)">
   <path id="e" d="m58.167 33.635c-1.399 1.761-3.893 2.583-6.205 2.583-2.98 0-6.569-1.409-6.995-4.579h20.804c0.06-0.704 0.121-1.819 0.121-2.524 0-8.629-6.448-14.44-14.538-14.44-8.151 0-14.842 5.577-14.842 14.205 0 8.629 6.691 14.382 14.842 14.382 4.805 0 10.098-1.468 12.957-5.577l-6.144-4.05zm-13.079-7.103c0.73-3.463 3.954-4.696 6.327-4.696 2.372 0 5.535 1.351 5.961 4.696h-12.288z"/>
   <path id="d" d="m28.899 28.528c0 3.933-3.042 6.633-6.57 6.633-3.589 0-6.57-2.582-6.57-6.633 0-3.933 2.981-6.515 6.57-6.515 3.467 0 6.57 2.406 6.57 6.515zm8.577 13.795v-42.323h-8.395v18.256c-1.399-2.524-4.805-3.933-8.334-3.933-7.299 0-13.747 5.576-13.747 14.381 0 8.629 6.448 14.206 13.747 14.206 3.529 0 6.935-1.468 8.334-3.992v3.405h8.395z"/>
   <path id="a" d="m83.594 42.675h8.394v-27.413h-8.394v3.052c-2.19-3.052-6.448-3.639-8.273-3.639-7.239 0-14.478 5.459-14.478 14.264s7.239 14.264 14.478 14.264c2.19 0 6.448-0.998 8.273-3.639v3.111zm-13.991-13.736c0-3.933 3.589-6.516 7.117-6.516 3.467 0 6.874 2.407 6.874 6.516s-3.407 6.516-6.874 6.516c-3.528 0-7.117-2.583-7.117-6.516z"/>
   <g id="Group-74">
    <polygon id="i" points="8.3945 11 0 11 0 43.04 8.3945 43.04"/>
    <polygon id="i" points="8.3945 0 0 0 0 7.8969 8.3945 7.8969"/>
   </g>
   <path id="th-copy" d="m184.56 14.744v-14.744h-8.39v14.744h-5.17v6.496h5.17v21.083h8.39v-21.083h5.97v-6.496h-5.97zm14.42 13.08c0-4.168 2.98-5.577 5.66-5.577 2.55 0 5.23 1.879 5.23 5.459v14.617h8.46v-14.91c0-8.277-3.9-13.09-11.38-13.09-2.68 0-6.81 1.467-7.97 4.872v-19.195h-8.45v42.323h8.45v-14.499z"/>
   <path id="b" d="m99.577 28.868c0-4.109 3.103-6.515 6.573-6.515 3.59 0 6.57 2.582 6.57 6.515 0 4.051-2.98 6.633-6.57 6.633-3.53 0-6.573-2.7-6.573-6.633zm-0.183 13.795v-3.405c1.396 2.524 4.806 3.992 8.336 3.992 7.3 0 13.75-5.577 13.75-14.206 0-8.805-6.45-14.381-13.75-14.381-3.53 0-6.94 1.409-8.336 3.933v-18.256h-8.394v42.323h8.394z"/>
   <path id="o" d="m133.35 35.161c-3.47 0-6.39-2.465-6.39-6.281 0-3.698 2.92-6.222 6.39-6.222 3.53 0 6.45 2.524 6.45 6.222 0 3.816-2.92 6.281-6.45 6.281zm0 7.984c8.03 0 14.78-5.636 14.78-14.265 0-8.628-6.75-14.205-14.78-14.205s-14.72 5.577-14.72 14.205c0 8.629 6.69 14.265 14.72 14.265z"/>
   <path id="o-copy" d="m160.73 35.161c-3.47 0-6.39-2.465-6.39-6.281 0-3.698 2.92-6.222 6.39-6.222 3.52 0 6.44 2.524 6.44 6.222 0 3.816-2.92 6.281-6.44 6.281zm0 7.984c8.02 0 14.78-5.636 14.78-14.265 0-8.628-6.76-14.205-14.78-14.205-8.03 0-14.73 5.577-14.73 14.205 0 8.629 6.7 14.265 14.73 14.265z"/>
  </g>
 </g>
</svg>
